<svg width="10" height="18" viewBox="0 0 10 18" fill="none" xmlns="http://www.w3.org/2000/svg">
<path fill-rule="evenodd" clip-rule="evenodd" d="M6.22079 0.0885246C4.5879 0.413613 3.50813 1.34922 3.02779 2.85519C2.85159 3.40764 2.80421 3.90978 2.80393 5.22739L2.80366 6.47096L1.57033 6.47162C0.204473 6.47233 0.146314 6.4825 0.0566542 6.73623C-0.0188847 6.95017 -0.0188847 9.68901 0.0566542 9.90453C0.140566 10.1439 0.256568 10.1633 1.61559 10.1662L2.80366 10.1687V13.9519V17.7352L2.91283 17.8587L3.02204 17.9822L4.64402 17.9958C6.39196 18.0105 6.55404 17.995 6.64329 17.8045C6.68213 17.7216 6.69602 16.6941 6.69602 13.91V10.128L8.21065 10.1153C9.59406 10.1037 9.73233 10.0958 9.80606 10.024C9.88074 9.95137 9.88685 9.82037 9.88685 8.29745V6.64951L9.78379 6.54923C9.68132 6.44948 9.673 6.44886 8.18458 6.43623L6.68837 6.42351L6.70376 5.24769C6.72033 3.98338 6.73087 3.92413 6.97939 3.69474C7.16899 3.51976 7.27861 3.50471 8.54435 3.47984L9.78162 3.45558L9.89083 3.33206L10 3.20854V1.71234V0.216095L9.88889 0.10807L9.77782 0L8.20295 0.00369768C6.86099 0.00686713 6.56789 0.019413 6.22079 0.0885246Z" fill="#001039"/>
</svg>
