<svg width="19" height="14" viewBox="0 0 19 14" fill="none" xmlns="http://www.w3.org/2000/svg">
<path fill-rule="evenodd" clip-rule="evenodd" d="M6.25846 0.0928136C5.49536 0.250657 4.7137 0.531523 3.88858 0.944265C3.32903 1.2242 2.67193 1.61731 2.53537 1.75382C2.28232 2.00683 1.72942 3.12292 1.35946 4.12755C0.703948 5.90765 0.187369 8.42825 0.010781 10.7084C-0.0244622 11.1635 0.00379924 11.224 0.452492 11.6551C1.90504 13.0506 3.78181 13.9221 5.47189 13.9857C5.94116 14.0034 6.00266 13.9984 6.10322 13.9342C6.1645 13.8951 6.55723 13.4272 6.97595 12.8944L7.73726 11.9257L8.09007 11.9533C8.53995 11.9884 10.4493 11.9891 10.9125 11.9543L11.2653 11.9279L12.0266 12.8955C12.4453 13.4277 12.8381 13.8938 12.8993 13.9313C13.1159 14.0638 14.0683 13.9972 14.8372 13.7958C16.1235 13.4589 17.4975 12.6664 18.5519 11.6534C19.0277 11.1962 19.0327 11.1828 18.9746 10.5127C18.7336 7.73168 18.0872 4.99693 17.2203 3.09032C16.9576 2.51255 16.6112 1.89777 16.4672 1.75382C16.2433 1.52996 15.1098 0.908147 14.353 0.593942C13.2044 0.117077 11.9477 -0.123966 11.6271 0.071069C11.4808 0.159974 11.4834 0.155751 10.9496 1.17857L10.5226 1.9969H9.50128H8.48001L8.05293 1.17857C7.51912 0.155751 7.52172 0.159974 7.37551 0.071069C7.20835 -0.0306161 6.81841 -0.0230222 6.25846 0.0928136ZM7.02891 1.62446C7.16319 1.88784 7.27305 2.11092 7.27305 2.12014C7.27305 2.12941 7.11013 2.16549 6.91096 2.20034C5.58494 2.43242 3.99873 2.96367 3.71021 3.27232C3.64121 3.34611 3.61644 3.41971 3.60604 3.58167C3.5884 3.85587 3.67797 4.00953 3.91692 4.11495C4.12043 4.20475 4.23061 4.19063 4.58747 4.02894C5.49213 3.61908 6.77199 3.30225 8.08438 3.1633C8.76288 3.09147 10.2388 3.09251 10.9337 3.1653C12.2432 3.30247 13.4996 3.61416 14.4151 4.02894C14.772 4.19063 14.8821 4.20475 15.0857 4.11495C15.3246 4.00953 15.4142 3.85587 15.3965 3.58167C15.375 3.24724 15.2455 3.14729 14.4247 2.83172C13.7286 2.56411 12.8882 2.33592 12.1013 2.20083C11.9075 2.16756 11.7432 2.13467 11.7362 2.1277C11.7293 2.12074 11.8348 1.89692 11.9707 1.63028C12.1734 1.23258 12.2323 1.14552 12.2986 1.14556C12.4352 1.14563 13.1013 1.3187 13.5121 1.46084C13.951 1.61268 14.9409 2.08636 15.383 2.35615C15.6439 2.51529 15.6919 2.56278 15.8249 2.79397C16.7544 4.40901 17.5158 7.24404 17.8346 10.2768L17.8852 10.7584L17.7134 10.9199C16.5613 12.0022 14.8238 12.8379 13.671 12.8642L13.4242 12.8699L12.9854 12.3151C12.744 12.01 12.5465 11.7486 12.5465 11.7343C12.5465 11.72 12.6426 11.6885 12.7601 11.6643C13.1665 11.5806 13.9814 11.3365 14.4235 11.166C15.2675 10.8407 16.1748 10.3387 16.3487 10.101C16.4509 9.96124 16.4503 9.66492 16.3475 9.52653C16.1073 9.20299 15.8393 9.18235 15.4022 9.45366C14.4887 10.0207 13.1988 10.4808 11.9037 10.7016C10.4574 10.9482 8.57764 10.9548 7.1802 10.7181C5.79918 10.4842 4.50328 10.0235 3.56712 9.43381C3.16916 9.18309 2.88892 9.21158 2.65503 9.52653C2.55223 9.66492 2.55164 9.96124 2.65388 10.101C2.82857 10.3398 3.75626 10.8521 4.58728 11.1688C5.03259 11.3384 5.85333 11.5841 6.24249 11.6643C6.35992 11.6885 6.45603 11.72 6.45603 11.7343C6.45603 11.7486 6.25857 12.01 6.01721 12.3151L5.5784 12.8699L5.33808 12.8647C4.60399 12.8488 3.43075 12.4317 2.54228 11.8709C2.14803 11.622 1.84109 11.3942 1.44153 11.0539C1.15115 10.8066 1.1454 10.7984 1.14558 10.6319C1.14577 10.4223 1.26814 9.3815 1.36707 8.74764C1.74468 6.32839 2.39689 4.16778 3.14739 2.84954C3.31544 2.55441 3.34504 2.52348 3.61941 2.35659C4.45269 1.84965 5.64926 1.35041 6.41889 1.18861C6.78413 1.11181 6.7581 1.09322 7.02891 1.62446ZM6.46613 5.08835C5.74459 5.26275 5.15284 5.87123 4.95089 6.64652C4.87294 6.9458 4.87313 7.51038 4.9513 7.8134C5.14846 8.57761 5.75618 9.20799 6.45139 9.36954C6.71242 9.43018 7.27557 9.39943 7.49587 9.31252C7.77904 9.2008 8.16323 8.92449 8.33852 8.70653C8.56717 8.42218 8.74294 8.04066 8.81725 7.6676C9.11609 6.16684 7.83204 4.75822 6.46613 5.08835ZM11.7159 5.09387C10.6576 5.34943 9.95796 6.52576 10.1853 7.6676C10.3062 8.27448 10.629 8.78087 11.0883 9.08411C11.4143 9.29937 11.6398 9.37509 12.0219 9.39769C12.6063 9.43221 13.0693 9.24922 13.4854 8.81929C13.9072 8.3835 14.1149 7.85311 14.1115 7.2207C14.108 6.58055 13.8998 6.05642 13.482 5.63645C12.9819 5.13377 12.3522 4.94029 11.7159 5.09387ZM7.20059 6.2483C7.82695 6.56603 7.93676 7.57802 7.39853 8.07289C7.20141 8.25411 7.10248 8.29497 6.86064 8.29497C6.3796 8.29497 6.00054 7.83111 6.00143 7.24352C6.00162 7.1189 6.02022 6.94928 6.04273 6.8666C6.09944 6.65841 6.28757 6.38703 6.4405 6.29272C6.71903 6.12102 6.92585 6.10894 7.20059 6.2483ZM12.5277 6.27401C12.6154 6.3252 12.7392 6.44567 12.8029 6.54165C13.2716 7.24748 12.8767 8.29497 12.1419 8.29497C11.9001 8.29497 11.8012 8.25411 11.604 8.07289C11.0643 7.57662 11.1745 6.57718 11.8056 6.24586C11.9751 6.15684 12.0373 6.14295 12.1882 6.16025C12.2874 6.17158 12.4401 6.22278 12.5277 6.27401Z" fill="#001039"/>
</svg>
