<svg width="12" height="9" viewBox="0 0 12 9" fill="none" xmlns="http://www.w3.org/2000/svg">
<path fill-rule="evenodd" clip-rule="evenodd" d="M0.846956 0.0227177C0.444657 0.100522 0.102678 0.444259 0.0247116 0.849206C-0.0082372 1.02028 -0.0082372 7.97659 0.0247116 8.14766C0.104529 8.56219 0.444422 8.89695 0.865305 8.97556C1.03975 9.00815 10.9602 9.00815 11.1347 8.97556C11.5556 8.89695 11.8955 8.56219 11.9753 8.14766C12.0082 7.97659 12.0082 1.02028 11.9753 0.849206C11.8955 0.434681 11.5556 0.0999218 11.1347 0.0213097C10.9778 -0.00800244 0.99867 -0.00664068 0.846956 0.0227177ZM8.40939 3.03709L6.02646 5.38403L5.69099 5.06801C5.50652 4.89419 4.42228 3.83833 3.28161 2.72168L1.20766 0.691359L5.99998 0.690758L10.7923 0.690158L8.40939 3.03709ZM2.49351 2.92428L4.084 4.48133L2.39391 6.14587L0.703818 7.81043V4.5015V1.19255L0.803414 1.27989C0.858181 1.32792 1.61872 2.0679 2.49351 2.92428ZM11.2962 4.50418V7.81043L9.61481 6.15446L7.93341 4.49848L9.60888 2.8482C10.5304 1.94054 11.287 1.19793 11.2903 1.19793C11.2935 1.19793 11.2962 2.68574 11.2962 4.50418ZM5.1917 5.56173C5.51381 5.87994 5.81651 6.16037 5.86431 6.1849C5.97031 6.23923 6.0715 6.24165 6.17107 6.19226C6.21232 6.17179 6.51246 5.89411 6.83809 5.57516L7.43009 4.99529L9.1112 6.65099L10.7923 8.30671H6.00005H1.20778L2.89494 6.64492C3.82287 5.73093 4.58747 4.98312 4.59405 4.98312C4.60061 4.98312 4.86957 5.24349 5.1917 5.56173Z" fill="#9098AE"/>
</svg>
