<svg width="10" height="18" viewBox="0 0 10 18" fill="none" xmlns="http://www.w3.org/2000/svg">
<path fill-rule="evenodd" clip-rule="evenodd" d="M6.179 0.0210437C5.94509 0.0538135 5.40048 0.206469 5.14451 0.311008C3.81828 0.852747 2.95504 1.93608 2.61029 3.49143C2.54912 3.76753 2.53542 3.98041 2.51714 4.94139L2.4957 6.06774L1.53184 6.08534C0.717728 6.10019 0.551669 6.11209 0.462926 6.16183C0.302203 6.25194 0.0783477 6.51979 0.0372117 6.67122C0.0135973 6.75823 0.000309697 7.36952 0.000206427 8.37514L0 9.94333L0.0891565 10.1263C0.13821 10.2269 0.235008 10.3572 0.304303 10.4158C0.524991 10.6025 0.674389 10.6259 1.64138 10.6259H2.51291V13.9885C2.51291 17.6979 2.50062 17.4858 2.72981 17.7303C2.79036 17.7949 2.90189 17.882 2.97762 17.9239C3.11332 17.9989 3.13935 18 4.76764 18C6.40217 18 6.42148 17.9992 6.56093 17.9229C6.72503 17.8331 6.90754 17.6321 6.97504 17.4669C7.01408 17.3714 7.02238 16.7622 7.02238 13.9907V10.6303L8.14974 10.6193C9.22654 10.6088 9.2833 10.605 9.41525 10.5327C9.59084 10.4365 9.72871 10.2956 9.82275 10.116C9.8946 9.97881 9.89704 9.9314 9.90778 8.46123C9.91535 7.4295 9.90651 6.8897 9.88007 6.76552C9.83012 6.53078 9.68403 6.32684 9.47649 6.20209L9.31153 6.10294L8.17556 6.08534L7.03959 6.06774L7.04127 5.39897C7.0422 5.03115 7.05456 4.67068 7.06871 4.59793C7.11673 4.35119 7.14255 4.34548 8.3116 4.32415C9.19807 4.30796 9.36565 4.29642 9.48365 4.24316C9.65608 4.16541 9.82881 3.99804 9.92558 3.81504C9.99862 3.67689 10 3.6457 10 2.14312C10 0.630539 9.99907 0.61023 9.92389 0.46648C9.82816 0.283518 9.67824 0.128892 9.52389 0.0539894C9.41787 0.00252939 9.22864 -0.00338394 7.84334 0.00129744C6.98475 0.00418371 6.2358 0.0130889 6.179 0.0210437ZM8.97639 2.13432L8.9673 3.25187L8.03787 3.27239C7.3031 3.28858 7.07129 3.30527 6.93112 3.3519C6.55081 3.47848 6.22747 3.79854 6.11263 4.16214C6.02124 4.4515 5.98334 5.00922 5.99553 5.88496C6.00761 6.75105 6.01983 6.81969 6.1904 6.97751C6.35029 7.12549 6.46809 7.13812 7.70224 7.13974L8.88124 7.14129V8.35564V9.56998H7.65528C6.48251 9.56998 6.42389 9.57312 6.30358 9.64225C6.23442 9.68202 6.13935 9.77192 6.09236 9.84207L6.00688 9.96959L5.99749 13.4656L5.98806 16.9616H4.76764H3.54723L3.5378 13.4656L3.5284 9.96959L3.44293 9.84207C3.39594 9.77192 3.30086 9.68202 3.2317 9.64225C3.1126 9.57382 3.05112 9.56998 2.06933 9.56998H1.0327V8.35564V7.14129L2.02238 7.13974C3.05611 7.13812 3.18892 7.12183 3.34489 6.97751C3.5253 6.81057 3.52657 6.80008 3.5494 5.29338C3.57012 3.92588 3.57325 3.87583 3.65928 3.55106C3.80489 3.00133 3.96795 2.64945 4.2588 2.25734C4.68981 1.67618 5.3695 1.2627 6.14895 1.10748C6.54262 1.02909 6.55332 1.02856 7.8232 1.0224L8.98547 1.01677L8.97639 2.13432Z" fill="#001039"/>
</svg>
