<svg width="60" height="60" viewBox="0 0 60 60" fill="none" xmlns="http://www.w3.org/2000/svg">
<g filter="url(#filter0_dd_1879_24)">
<circle cx="30" cy="30" r="25" fill="#E2F1FC"/>
</g>
<path fill-rule="evenodd" clip-rule="evenodd" d="M29.1769 18.3447C29.0889 18.355 28.8217 18.3846 28.5831 18.4105C27.076 18.5739 25.4072 19.1392 24.0605 19.9423C22.3466 20.9645 20.9536 22.3569 19.931 24.07C19.1341 25.4051 18.6048 26.9566 18.3888 28.5906C18.3149 29.15 18.3149 30.8619 18.3888 31.4214C18.6048 33.0554 19.1341 34.6069 19.931 35.9419C20.9536 37.6551 22.3466 39.0475 24.0605 40.0696C25.3962 40.8662 26.9483 41.3953 28.5831 41.6111C29.1427 41.6851 30.8554 41.6851 31.4151 41.6111C34.2593 41.2355 36.6702 39.9868 38.6378 37.8704C39.7263 36.6994 40.5779 35.243 41.1006 33.6586C41.5125 32.4096 41.6667 31.4151 41.6667 30.006C41.6667 28.9635 41.6226 28.503 41.4355 27.5861C40.7936 24.4426 38.773 21.6334 35.9376 19.9423C34.6156 19.1539 33.0391 18.6136 31.4607 18.4081C31.0601 18.3559 29.4601 18.3115 29.1769 18.3447ZM30.9354 19.7336C33.598 19.9775 36.1692 21.3155 37.8661 23.34C40.0893 25.9924 40.8441 29.443 39.9305 32.7769C39.579 34.0595 38.9556 35.2883 38.1107 36.3637C37.9578 36.5582 37.8217 36.7175 37.8083 36.7175C37.7949 36.7176 37.7244 36.5194 37.6516 36.2771C37.2621 34.9814 36.3589 33.5915 35.31 32.6739C34.652 32.0983 33.7551 31.5455 32.9462 31.2171L32.7644 31.1433L32.9233 31.0245C33.2084 30.8112 33.9109 30.0729 34.0799 29.8087C34.7256 28.7999 34.9989 27.7093 34.8856 26.5949C34.7156 24.9243 33.7414 23.4851 32.2594 22.715C29.1796 21.1145 25.4651 23.131 25.1125 26.5949C25.0211 27.494 25.1944 28.4419 25.5964 29.2403C25.9199 29.883 26.4613 30.5478 26.9885 30.9496C27.1118 31.0436 27.2125 31.1317 27.2122 31.1454C27.2119 31.1591 27.0628 31.2301 26.881 31.3032C25.6483 31.7989 24.4117 32.767 23.5516 33.9097C23.0536 34.5713 22.5785 35.5054 22.3451 36.2819C22.2731 36.5215 22.2032 36.7176 22.1898 36.7175C22.1509 36.7173 21.6319 36.0433 21.3702 35.6531C21.084 35.2265 20.5749 34.2401 20.3686 33.7129C20.0151 32.8096 19.7923 31.7645 19.7111 30.6299C19.4771 27.3592 20.9484 24.0337 23.5444 21.9655C25.6409 20.2952 28.3003 19.4921 30.9354 19.7336ZM30.9583 23.6589C32.1319 23.9934 33.0512 24.9116 33.4044 26.1023C33.5653 26.6444 33.5775 27.4229 33.4336 27.958C33.0085 29.5386 31.6291 30.5995 29.9991 30.5995C28.3691 30.5995 26.9897 29.5386 26.5645 27.958C26.4207 27.4229 26.4328 26.6444 26.5937 26.1023C26.9949 24.7499 28.0368 23.8343 29.4966 23.5513C29.7615 23.5 30.623 23.5634 30.9583 23.6589ZM30.9354 32.1113C32.3507 32.2922 33.6047 32.9239 34.6839 33.9996C35.5007 34.8138 36.0104 35.6367 36.3403 36.674C36.4575 37.0425 36.644 37.9093 36.61 37.9271C36.6042 37.9301 36.4658 38.0367 36.3025 38.1639C34.8938 39.2615 33.1992 39.9643 31.3009 40.2382C30.7709 40.3146 29.2272 40.3146 28.6973 40.2382C26.7989 39.9643 25.1043 39.2615 23.6956 38.1639C23.5323 38.0367 23.3938 37.93 23.388 37.9269C23.382 37.9238 23.4071 37.751 23.4438 37.5429C23.8587 35.184 25.5513 33.2057 27.8345 32.4113C28.8453 32.0597 29.8048 31.9668 30.9354 32.1113Z" fill="#001039"/>
<defs>
<filter id="filter0_dd_1879_24" x="0" y="0" width="60" height="60" filterUnits="userSpaceOnUse" color-interpolation-filters="sRGB">
<feFlood flood-opacity="0" result="BackgroundImageFix"/>
<feColorMatrix in="SourceAlpha" type="matrix" values="0 0 0 0 0 0 0 0 0 0 0 0 0 0 0 0 0 0 127 0" result="hardAlpha"/>
<feOffset dx="2" dy="2"/>
<feGaussianBlur stdDeviation="1.5"/>
<feComposite in2="hardAlpha" operator="out"/>
<feColorMatrix type="matrix" values="0 0 0 0 0 0 0 0 0 0.0392157 0 0 0 0 0.188235 0 0 0 0.15 0"/>
<feBlend mode="normal" in2="BackgroundImageFix" result="effect1_dropShadow_1879_24"/>
<feColorMatrix in="SourceAlpha" type="matrix" values="0 0 0 0 0 0 0 0 0 0 0 0 0 0 0 0 0 0 127 0" result="hardAlpha"/>
<feOffset dx="-2" dy="-2"/>
<feGaussianBlur stdDeviation="1.5"/>
<feComposite in2="hardAlpha" operator="out"/>
<feColorMatrix type="matrix" values="0 0 0 0 1 0 0 0 0 1 0 0 0 0 1 0 0 0 0.5 0"/>
<feBlend mode="normal" in2="effect1_dropShadow_1879_24" result="effect2_dropShadow_1879_24"/>
<feBlend mode="normal" in="SourceGraphic" in2="effect2_dropShadow_1879_24" result="shape"/>
</filter>
</defs>
</svg>
