<svg width="16" height="16" viewBox="0 0 16 16" fill="none" xmlns="http://www.w3.org/2000/svg">
<path fill-rule="evenodd" clip-rule="evenodd" d="M3.43835 0.0459958C2.54239 0.179581 1.83386 0.538058 1.18692 1.18511C0.521544 1.85057 0.156362 2.59352 0.0354778 3.52771C-0.0118259 3.89331 -0.0118259 12.1047 0.0354778 12.4703C0.156362 13.4045 0.521544 14.1475 1.18692 14.8129C1.8523 15.4784 2.59516 15.8436 3.52924 15.9645C3.89479 16.0118 12.1052 16.0118 12.4708 15.9645C13.4048 15.8436 14.1477 15.4784 14.8131 14.8129C15.4785 14.1475 15.8436 13.4045 15.9645 12.4703C16.0118 12.1047 16.0118 3.89331 15.9645 3.52771C15.8436 2.59352 15.4785 1.85057 14.8131 1.18511C14.1477 0.519653 13.4048 0.154426 12.4708 0.0335278C12.0704 -0.0182814 3.79275 -0.00687588 3.43835 0.0459958ZM12.8032 1.45925C13.1547 1.58168 13.2335 1.62121 13.5226 1.8202C13.9868 2.13968 14.3515 2.63555 14.5353 3.19705L14.6394 3.51493V7.99902C14.6394 12.2908 14.6369 12.4911 14.581 12.6706C14.3694 13.3501 14.0096 13.8513 13.4732 14.2142C13.2442 14.3691 13.0428 14.4626 12.7165 14.5657L12.4835 14.6392H8H3.51646L3.19861 14.5351C2.3229 14.2484 1.71067 13.6069 1.419 12.6706C1.36311 12.4911 1.36061 12.2908 1.36061 7.99902C1.36061 3.70729 1.36311 3.5069 1.419 3.32744C1.64127 2.61383 2.02795 2.09583 2.60844 1.73398C2.85205 1.58215 3.26988 1.41903 3.52952 1.37441C3.60825 1.36088 5.66215 1.35185 8.09373 1.35432L12.5148 1.35882L12.8032 1.45925ZM12.1242 2.69983C11.9015 2.74807 11.7743 2.81729 11.6246 2.97153C11.4205 3.18186 11.3587 3.34504 11.3593 3.67117C11.3599 3.91434 11.3711 3.97356 11.4426 4.10864C11.6149 4.43444 11.9063 4.62499 12.2684 4.64864C12.5326 4.66589 12.6734 4.62755 12.8967 4.47743C13.5185 4.05962 13.4471 3.10627 12.7699 2.78398C12.5385 2.67383 12.3547 2.64989 12.1242 2.69983ZM7.48869 4.03256C5.97897 4.24182 4.69258 5.29432 4.2227 6.70473C4.06217 7.18657 4.01811 7.46531 4.01811 7.99902C4.01811 8.53311 4.06201 8.81063 4.22333 9.29582C4.59935 10.4268 5.5747 11.3999 6.71202 11.7788C7.18749 11.9373 7.46807 11.9814 8 11.9814C8.53193 11.9814 8.81251 11.9373 9.28798 11.7788C10.4253 11.3999 11.4007 10.4268 11.7767 9.29582C11.938 8.81063 11.9819 8.53311 11.9819 7.99902C11.9819 7.29866 11.8456 6.72695 11.5428 6.15667C10.9665 5.07149 9.97029 4.3256 8.76548 4.07721C8.46479 4.01521 7.78523 3.99143 7.48869 4.03256ZM8.80391 5.46365C9.13717 5.57433 9.22724 5.61767 9.4841 5.79085C10.0082 6.1443 10.3633 6.63367 10.5659 7.28169C10.629 7.48362 10.6387 7.57924 10.6387 7.99902C10.6387 8.51483 10.6016 8.70382 10.4196 9.11536C10.1879 9.63948 9.63901 10.1877 9.11326 10.4203C8.7049 10.6009 8.51487 10.638 8 10.638C7.48513 10.638 7.2951 10.6009 6.88674 10.4203C6.36099 10.1877 5.81213 9.63948 5.58036 9.11536C5.39839 8.70382 5.3613 8.51483 5.3613 7.99902C5.3613 7.57924 5.37099 7.48362 5.4341 7.28169C5.54043 6.94162 5.63391 6.74538 5.81325 6.48593C6.1665 5.9749 6.66103 5.61977 7.26714 5.44187C7.57383 5.35188 7.62151 5.34703 8.09373 5.35803C8.46532 5.36669 8.54987 5.37928 8.80391 5.46365Z" fill="#001039"/>
</svg>
