<svg width="10" height="10" viewBox="0 0 10 10" fill="none" xmlns="http://www.w3.org/2000/svg">
<path fill-rule="evenodd" clip-rule="evenodd" d="M4.74628 0.0290369C4.49055 0.0813699 4.37918 0.148624 3.84261 0.574837L3.48692 0.857369H2.52202C1.4751 0.857369 1.46561 0.858269 1.37749 0.965203C1.33367 1.01838 1.33305 1.02941 1.33209 1.79383L1.33113 2.56856L0.685132 3.07702C0.329846 3.35668 0.0303906 3.60076 0.0196753 3.61944C-0.00974575 3.67074 -0.00466469 9.01041 0.0248998 9.12702C0.0621064 9.27369 0.172128 9.48326 0.274487 9.60246C0.396638 9.74465 0.638276 9.89909 0.827525 9.95588L0.974528 10H5.00046H9.02639L9.17067 9.95668C9.4697 9.86686 9.73604 9.64695 9.87473 9.37537C9.919 9.28867 9.96508 9.17167 9.97713 9.11535C9.99202 9.0457 9.9993 8.15407 9.99987 6.32904C10.0007 3.78569 9.99881 3.64289 9.9643 3.60172C9.94427 3.57782 9.64006 3.32891 9.28829 3.04855L8.64871 2.53881L8.64292 1.76856C8.63736 1.03015 8.63542 0.996513 8.59614 0.954486C8.50696 0.859051 8.48737 0.857369 7.46908 0.857369H6.51487L6.15206 0.567465C5.60468 0.130085 5.52688 0.084186 5.23556 0.0267488C5.05146 -0.00956748 4.93213 -0.00900035 4.74628 0.0290369ZM5.14388 0.47553C5.27039 0.492779 5.37724 0.550059 5.58247 0.710696L5.7574 0.847591L5.37892 0.85291C5.17078 0.855844 4.83014 0.855844 4.62196 0.85291L4.24346 0.847591L4.40618 0.720474C4.49567 0.65056 4.61336 0.569342 4.66769 0.540007C4.76067 0.489806 4.95276 0.444846 5.02095 0.457323C5.03785 0.460413 5.09317 0.468607 5.14388 0.47553ZM8.1544 2.96457L8.15317 4.62198L6.80316 5.58025C6.06066 6.10729 5.39142 6.56931 5.31596 6.60696C5.18977 6.66991 5.16441 6.67541 5.00046 6.67541C4.83619 6.67541 4.81152 6.67003 4.68662 6.60696C4.61207 6.56931 3.93305 6.09877 3.17769 5.5613L1.8043 4.5841V2.95867C1.8043 2.06469 1.81045 1.32737 1.81797 1.32021C1.82546 1.31303 3.25452 1.30717 4.99364 1.30717H8.15564L8.1544 2.96457ZM3.41158 3.1758C3.29289 3.23171 3.24843 3.36396 3.31006 3.47772C3.3747 3.59701 3.36206 3.59527 4.16706 3.59527H4.90212L4.97178 3.52878C5.03015 3.47306 5.04144 3.44817 5.04144 3.37518C5.04144 3.27865 4.98366 3.19982 4.88722 3.16483C4.85583 3.15343 4.55423 3.14565 4.15399 3.14592C3.59046 3.14629 3.46339 3.1514 3.41158 3.1758ZM9.05313 3.45624C9.23562 3.60028 9.38494 3.72389 9.38494 3.73095C9.38494 3.73801 9.24896 3.83963 9.08274 3.95677C8.91652 4.07389 8.75058 4.19113 8.71395 4.21728L8.64736 4.26482V3.70404C8.64736 3.16708 8.64894 3.14434 8.68434 3.1688C8.70467 3.18286 8.87062 3.31221 9.05313 3.45624ZM1.32852 3.96678L1.32283 4.24288L0.970287 3.99242C0.776407 3.85465 0.619836 3.73486 0.622356 3.72622C0.624897 3.71758 0.783537 3.58731 0.974897 3.43676L1.32283 3.16303L1.32852 3.42685C1.33166 3.57196 1.33166 3.81493 1.32852 3.96678ZM2.46513 5.61936C3.66703 6.4773 4.35631 6.95682 4.4617 7.00839C4.65794 7.10444 4.78888 7.13498 5.00419 7.13498C5.20545 7.13498 5.37798 7.09442 5.55364 7.00579C5.62689 6.96885 6.52581 6.3398 7.55124 5.60792C8.57668 4.87604 9.44116 4.2595 9.47232 4.23783L9.52899 4.19843L9.52354 6.62008L9.51811 9.04173L9.46496 9.14929C9.39446 9.29194 9.26125 9.41554 9.0981 9.48967L8.96493 9.5502L5.1029 9.55566C2.4809 9.55937 1.19599 9.55452 1.10106 9.5406C0.875447 9.50747 0.707137 9.40683 0.586645 9.23304C0.469391 9.06391 0.473079 9.1501 0.472813 6.57103L0.472567 4.19813L0.551037 4.2536C0.594206 4.28412 1.45555 4.89871 2.46513 5.61936ZM3.38634 4.32983C3.28466 4.39781 3.25253 4.53333 3.3144 4.63332C3.38839 4.75285 3.33375 4.7491 5.00046 4.7491C6.67383 4.7491 6.62532 4.75252 6.69164 4.6301C6.74423 4.53304 6.73032 4.44073 6.65181 4.36579L6.58215 4.2993H5.00708C3.61292 4.2993 3.42674 4.3028 3.38634 4.32983Z" fill="#9098AE"/>
</svg>
