<svg width="9" height="10" viewBox="0 0 9 10" fill="none" xmlns="http://www.w3.org/2000/svg">
<path fill-rule="evenodd" clip-rule="evenodd" d="M4.03928 0.0345477C3.39449 0.137338 2.75889 0.468389 2.35063 0.914088C1.35026 2.00621 1.40499 3.58388 2.47823 4.59233C3.54815 5.5976 5.23183 5.65114 6.38742 4.71664C6.74387 4.42838 7.07309 3.96089 7.22213 3.53142C7.65453 2.28526 7.06579 0.91921 5.83687 0.31733C5.27253 0.0408969 4.63176 -0.0598975 4.03928 0.0345477ZM4.81505 0.7954C5.91195 0.954877 6.68333 1.93103 6.52361 2.95749C6.30986 4.331 4.68364 5.05157 3.43153 4.32753C2.71569 3.91361 2.33274 3.11141 2.48852 2.35205C2.70189 1.31195 3.71332 0.635226 4.81505 0.7954ZM7.19462 5.00371C7.13513 5.03139 7.06464 5.08819 7.03794 5.12995C6.90794 5.33339 6.94439 5.46489 7.20437 5.73017C7.78008 6.31762 8.12094 7.06284 8.17618 7.85486C8.19804 8.16838 8.17469 8.23158 7.97092 8.41071C7.18786 9.09898 4.88503 9.42093 2.95145 9.11251C2.11566 8.97921 1.37483 8.71208 1.04493 8.42509C0.828793 8.23709 0.803427 8.17347 0.823264 7.86917C0.874457 7.08301 1.21813 6.31721 1.7728 5.75337C1.97972 5.54303 2.02661 5.45729 2.01005 5.31941C1.97916 5.06188 1.66929 4.89615 1.4336 5.01114C1.3356 5.05895 1.05501 5.33925 0.870438 5.57372C0.349071 6.23601 0.049469 7.03186 0.00393355 7.87547C-0.0207923 8.33329 0.0672327 8.5704 0.376843 8.87995C1.4753 9.97818 4.86663 10.3498 7.21049 9.62878C7.85218 9.43137 8.32069 9.18243 8.62713 8.87601C8.93254 8.57064 9.02072 8.33148 8.9961 7.87547C8.94124 6.85944 8.50936 5.89922 7.79136 5.19678C7.53494 4.94594 7.4075 4.90471 7.19462 5.00371Z" fill="#9098AE"/>
</svg>
