<svg width="8" height="10" viewBox="0 0 8 10" fill="none" xmlns="http://www.w3.org/2000/svg">
<path fill-rule="evenodd" clip-rule="evenodd" d="M3.70862 0.00660847C3.27624 0.0582974 2.86221 0.203534 2.50148 0.430086C2.30093 0.556055 1.9341 0.900485 1.79994 1.08879C1.60869 1.35726 1.47843 1.63929 1.39378 1.96819C1.35517 2.11817 1.35012 2.2125 1.34171 2.94041L1.3324 3.74652H1.1096C0.976713 3.74652 0.837455 3.7586 0.764485 3.77644C0.405506 3.86424 0.129008 4.1247 0.0349967 4.46358C-0.0116656 4.63176 -0.0116656 9.11476 0.0349967 9.28294C0.129008 9.62182 0.405506 9.88228 0.764485 9.97008C0.871692 9.99631 1.27169 10 4 10C6.72831 10 7.12831 9.99631 7.23552 9.97008C7.59449 9.88228 7.87099 9.62182 7.965 9.28294C8.01167 9.11476 8.01167 4.63176 7.965 4.46358C7.87099 4.1247 7.59449 3.86424 7.23552 3.77644C7.16255 3.7586 7.02329 3.74652 6.8904 3.74652H6.6676L6.65829 2.94041C6.64988 2.2125 6.64483 2.11817 6.60622 1.96819C6.47716 1.46678 6.25278 1.08799 5.87584 0.735178C5.4893 0.373394 5.0853 0.163024 4.56194 0.0509886C4.3882 0.0138 3.87277 -0.0130118 3.70862 0.00660847ZM4.48173 0.675594C4.85913 0.768692 5.14635 0.926632 5.42568 1.19461C5.62354 1.38446 5.76276 1.58323 5.85973 1.81437C5.97967 2.10023 5.98335 2.13232 5.99251 2.96972L6.001 3.74652H4H1.999L2.00695 2.96972C2.01427 2.2512 2.01819 2.1817 2.05904 2.0435C2.16485 1.68567 2.32944 1.42015 2.60284 1.16626C2.92431 0.867693 3.23498 0.722944 3.75025 0.631702C3.87229 0.610069 4.3267 0.63735 4.48173 0.675594ZM7.17634 4.42194C7.20796 4.4441 7.25312 4.4865 7.27672 4.51619C7.31941 4.56987 7.31966 4.58187 7.32509 6.84543C7.33115 9.364 7.3397 9.20378 7.19339 9.30856L7.11476 9.36488H4H0.885241L0.80661 9.30856C0.661274 9.20448 0.669953 9.35898 0.669953 6.87516C0.669953 5.33123 0.676905 4.61126 0.692161 4.57345C0.721673 4.50028 0.791084 4.43143 0.867675 4.39934C0.919062 4.37783 1.47736 4.37394 4.0245 4.37742C7.11384 4.38164 7.11896 4.3817 7.17634 4.42194ZM3.84838 5.42726C3.38646 5.50326 3.05114 5.93895 3.12468 6.36763C3.16847 6.623 3.36604 6.88856 3.57946 6.97892L3.667 7.016V7.55122C3.667 8.04504 3.67016 8.09226 3.70798 8.16185C3.82702 8.38095 4.17298 8.38095 4.29202 8.16185C4.32984 8.09226 4.333 8.04504 4.333 7.55122V7.016L4.42054 6.97892C4.63396 6.88856 4.83153 6.623 4.87532 6.36763C4.92634 6.07027 4.76993 5.72971 4.50737 5.56642C4.313 5.44553 4.06088 5.3923 3.84838 5.42726ZM4.09412 6.06377C4.15768 6.0921 4.22894 6.18942 4.22894 6.24791C4.22894 6.26079 4.21416 6.30054 4.19612 6.33628C4.15599 6.41566 4.04414 6.47079 3.95892 6.45322C3.8821 6.43737 3.79822 6.35862 3.78134 6.28649C3.76311 6.2085 3.82116 6.10219 3.90262 6.06447C3.98608 6.02584 4.00876 6.02574 4.09412 6.06377Z" fill="#9098AE"/>
</svg>
