<svg width="16" height="14" viewBox="0 0 16 14" fill="none" xmlns="http://www.w3.org/2000/svg">
<path fill-rule="evenodd" clip-rule="evenodd" d="M14.7851 0.0692214C14.6905 0.109113 14.2896 0.304514 13.8942 0.503437C13.4988 0.702359 13.0874 0.904456 12.98 0.952521L12.7847 1.03991L12.5675 0.942241C11.3511 0.395268 9.84173 0.673753 8.86639 1.62514C8.10166 2.3711 7.6894 3.32887 7.63641 4.48264L7.61722 4.90035L7.47362 4.88127C5.23192 4.58335 3.36621 3.30372 2.22726 1.2829C2.08023 1.02202 1.97117 0.931082 1.78352 0.912975C1.58466 0.893737 1.46253 0.943907 1.3451 1.09304C1.21006 1.26448 1.01029 1.65092 0.922551 1.91035C0.835247 2.16847 0.749913 2.69416 0.750757 2.96871C0.751945 3.36414 0.882604 3.9638 1.04552 4.32169C1.08991 4.41914 1.1201 4.50499 1.11266 4.5125C1.10522 4.51998 0.97991 4.48952 0.834185 4.44482C0.519666 4.34835 0.395696 4.34347 0.250346 4.42187C0.134566 4.48433 0 4.69998 0 4.82311C0 4.86294 0.0287887 5.01983 0.0639853 5.17179C0.333711 6.33681 1.0057 7.23709 2.05391 7.83791L2.28828 7.97226L2.12096 8.02023C2.02893 8.04661 1.89161 8.08455 1.81578 8.10454C1.62961 8.15368 1.556 8.20712 1.47504 8.35197C1.30834 8.65029 1.42659 8.87087 1.99811 9.32766C2.63184 9.83417 3.39775 10.2201 4.27595 10.4753C4.47013 10.5317 4.62914 10.5883 4.62932 10.601C4.62982 10.6417 4.28514 10.8684 4.00451 11.012C3.66132 11.1876 3.24756 11.3242 2.80173 11.4088C2.51965 11.4624 2.29397 11.4775 1.60979 11.4887C0.647605 11.5044 0.550205 11.5229 0.42114 11.7139C0.329241 11.8499 0.31852 12.0492 0.394383 12.21C0.449991 12.3278 0.721468 12.5557 1.02201 12.7368C1.84191 13.231 3.53282 13.7278 4.98567 13.9014C7.0809 14.1518 9.061 13.922 10.5965 13.2502C11.4693 12.8683 12.1223 12.4145 12.8053 11.7152C14.1601 10.3278 14.9483 8.76383 15.2438 6.87697C15.3227 6.37309 15.3221 5.11703 15.2427 4.52853L15.1865 4.11195L15.5681 3.49522C15.7781 3.15604 15.9639 2.83232 15.9811 2.77586C16.0502 2.54953 15.9247 2.30773 15.6889 2.21282C15.5792 2.16869 15.5162 2.16595 15.2478 2.19365C15.0756 2.21141 14.8799 2.22596 14.8129 2.22596H14.6911L15.0813 1.44153C15.296 1.01008 15.4797 0.603401 15.4895 0.537764C15.5166 0.358174 15.4028 0.155543 15.2239 0.0647891C15.0516 -0.0225695 15.0015 -0.0220666 14.7851 0.0692214ZM13.9411 1.58025C13.9411 1.5882 13.8215 1.83714 13.6754 2.13348C13.3897 2.71296 13.3656 2.81324 13.4645 3.01122C13.4945 3.07138 13.5669 3.15274 13.6253 3.19197C13.7415 3.26999 13.9285 3.28118 14.3709 3.23657C14.4956 3.22403 14.5975 3.22042 14.5975 3.22859C14.5975 3.23673 14.5167 3.37781 14.4178 3.54206C14.2474 3.82523 14.2381 3.85145 14.2381 4.04713C14.2381 4.16065 14.2651 4.46572 14.2982 4.72507C14.3665 5.26122 14.3762 6.12239 14.3189 6.57974C14.1092 8.25399 13.4033 9.70425 12.1675 10.9996C11.4754 11.7251 10.6828 12.231 9.71745 12.5636C7.84753 13.2077 5.25367 13.1928 3.03203 12.5251C2.83433 12.4657 2.69367 12.4095 2.71945 12.4004C2.74524 12.3911 2.87184 12.3669 3.00078 12.3465C3.61684 12.2492 4.35791 11.9622 4.88295 11.6178C5.36833 11.2994 6.05313 10.672 6.12615 10.4788C6.21011 10.2568 6.12265 10.0088 5.91806 9.88862C5.86364 9.85665 5.65668 9.80258 5.45816 9.76841C4.77649 9.65116 4.10541 9.44306 3.54779 9.17605C3.25528 9.036 2.87574 8.81206 2.87574 8.77955C2.87574 8.77163 2.96758 8.72325 3.07983 8.67204C3.4197 8.5171 3.81405 8.26213 3.87863 8.15559C3.9574 8.02567 3.95824 7.77356 3.88029 7.65467C3.79454 7.5239 3.7239 7.48455 3.35334 7.36119C2.59355 7.10827 2.11252 6.809 1.67678 6.3182C1.4807 6.09731 1.18778 5.65181 1.18784 5.57448C1.18784 5.55411 1.35607 5.54238 1.6489 5.54238C1.94266 5.54238 2.15059 5.52786 2.22198 5.50236C2.45442 5.41934 2.59477 5.16415 2.53362 4.93578C2.51512 4.86668 2.41759 4.71001 2.31222 4.58009C2.10114 4.31977 1.87558 3.88534 1.79181 3.57768C1.72657 3.33814 1.70994 2.50558 1.76918 2.44604C1.79412 2.42096 1.85932 2.48716 2.00758 2.68809C3.38831 4.55959 5.46176 5.6955 7.82328 5.87421C8.25217 5.90665 8.26486 5.9058 8.40174 5.83492C8.60238 5.73099 8.66702 5.59909 8.64511 5.33805C8.57069 4.45133 8.59172 4.07678 8.74308 3.59415C9.13665 2.3391 10.154 1.57855 11.3607 1.63727C11.7687 1.65714 12.0246 1.72941 12.4095 1.93365C12.7556 2.11732 12.7995 2.11185 13.4135 1.8086C13.886 1.57525 13.9411 1.55139 13.9411 1.58025Z" fill="#001039"/>
</svg>
