<svg width="24" height="24" viewBox="0 0 24 24" fill="none" xmlns="http://www.w3.org/2000/svg">
<path fill-rule="evenodd" clip-rule="evenodd" d="M11.1769 0.344705C11.0889 0.355023 10.8217 0.384609 10.5831 0.410497C9.07603 0.57395 7.40717 1.13919 6.06051 1.94234C4.34661 2.96447 2.95359 4.35688 1.93101 6.07004C1.13408 7.4051 0.604769 8.95658 0.388807 10.5906C0.314856 11.15 0.314856 12.8619 0.388807 13.4214C0.604769 15.0554 1.13408 16.6069 1.93101 17.9419C2.95359 19.6551 4.34661 21.0475 6.06051 22.0696C7.39616 22.8662 8.94832 23.3953 10.5831 23.6111C11.1427 23.6851 12.8554 23.6851 13.4151 23.6111C16.2593 23.2355 18.6702 21.9868 20.6378 19.8704C21.7263 18.6994 22.5779 17.243 23.1006 15.6586C23.5125 14.4096 23.6667 13.4151 23.6667 12.006C23.6667 10.9635 23.6226 10.503 23.4355 9.58615C22.7936 6.4426 20.773 3.63335 17.9376 1.94234C16.6156 1.15389 15.0391 0.613626 13.4607 0.408077C13.0601 0.355937 11.4601 0.311512 11.1769 0.344705ZM12.9354 1.73355C15.598 1.9775 18.1692 3.31549 19.8661 5.34002C22.0893 7.99239 22.8441 11.443 21.9305 14.7769C21.579 16.0595 20.9556 17.2883 20.1107 18.3637C19.9578 18.5582 19.8217 18.7175 19.8083 18.7175C19.7949 18.7176 19.7244 18.5194 19.6516 18.2771C19.2621 16.9814 18.3589 15.5915 17.31 14.6739C16.652 14.0983 15.7551 13.5455 14.9462 13.2171L14.7644 13.1433L14.9233 13.0245C15.2084 12.8112 15.9109 12.0729 16.0799 11.8087C16.7256 10.7999 16.9989 9.70929 16.8856 8.59488C16.7156 6.92428 15.7414 5.48512 14.2594 4.71502C11.1796 3.11455 7.46508 5.13105 7.11255 8.59488C7.02106 9.49397 7.19445 10.4419 7.59636 11.2403C7.91989 11.883 8.46131 12.5478 8.98851 12.9496C9.11184 13.0436 9.21247 13.1317 9.2122 13.1454C9.21188 13.1591 9.06283 13.2301 8.88104 13.3032C7.64825 13.7989 6.41168 14.767 5.55157 15.9097C5.0536 16.5713 4.57851 17.5054 4.34514 18.2819C4.27311 18.5215 4.20322 18.7176 4.1898 18.7175C4.15092 18.7173 3.63194 18.0433 3.37016 17.6531C3.08404 17.2265 2.57488 16.2401 2.36855 15.7129C2.01515 14.8096 1.79229 13.7645 1.71107 12.6299C1.47707 9.35923 2.94838 6.03374 5.54445 3.96546C7.64094 2.29518 10.3003 1.49212 12.9354 1.73355ZM12.9583 5.65894C14.1319 5.99338 15.0512 6.91164 15.4044 8.10229C15.5653 8.64442 15.5775 9.42292 15.4336 9.95798C15.0085 11.5386 13.6291 12.5995 11.9991 12.5995C10.3691 12.5995 8.98966 11.5386 8.56454 9.95798C8.42065 9.42292 8.43285 8.64442 8.59368 8.10229C8.99486 6.74992 10.0368 5.83431 11.4966 5.55132C11.7615 5.49996 12.623 5.56338 12.9583 5.65894ZM12.9354 14.1113C14.3507 14.2922 15.6047 14.9239 16.6839 15.9996C17.5007 16.8138 18.0104 17.6367 18.3403 18.674C18.4575 19.0425 18.644 19.9093 18.61 19.9271C18.6042 19.9301 18.4658 20.0367 18.3025 20.1639C16.8938 21.2615 15.1992 21.9643 13.3009 22.2382C12.7709 22.3146 11.2272 22.3146 10.6973 22.2382C8.79891 21.9643 7.10433 21.2615 5.69559 20.1639C5.5323 20.0367 5.39385 19.93 5.38796 19.9269C5.38202 19.9238 5.40714 19.751 5.44377 19.5429C5.85866 17.184 7.55132 15.2057 9.83446 14.4113C10.8453 14.0597 11.8048 13.9668 12.9354 14.1113Z" fill="#001039"/>
</svg>
