<svg width="15" height="11" viewBox="0 0 15 11" fill="none" xmlns="http://www.w3.org/2000/svg">
<path fill-rule="evenodd" clip-rule="evenodd" d="M14.1684 0.0194232C14.0779 0.0437072 13.7108 0.308288 12.4833 1.23398L10.9139 2.41746L10.4304 2.23444C9.40996 1.84824 8.54868 1.68637 7.51449 1.68637C6.94069 1.68637 6.55609 1.72342 5.98651 1.83351C4.13817 2.19087 2.22113 3.27658 0.376328 5.01081C-0.157528 5.51268 -0.161748 5.49151 0.612529 6.19345C1.42977 6.93435 2.46592 7.69839 3.17112 8.08015L3.31149 8.15614L1.7887 9.30735C0.135057 10.5575 0.171513 10.5244 0.230973 10.7211C0.26441 10.8318 0.418146 10.9506 0.566929 10.9809C0.827161 11.0337 0.70443 11.1157 3.35313 9.12016L5.78548 7.28767L5.99061 7.38202C6.47773 7.60606 6.91124 7.6945 7.51449 7.69291C8.00934 7.6916 8.31113 7.6425 8.71786 7.49709C9.07304 7.37012 9.31572 7.24341 9.56718 7.05361C9.81868 6.86382 9.98657 6.68068 10.1548 6.41262C10.3475 6.10567 10.4126 5.87791 10.4143 5.50445C10.4164 5.04918 10.2992 4.72201 10.0023 4.35439L9.87732 4.19957L12.3056 2.36389C14.9448 0.368777 14.8295 0.466975 14.7688 0.265868C14.7442 0.18459 14.6278 0.0688538 14.5331 0.0316095C14.4394 -0.00528103 14.2802 -0.010589 14.1684 0.0194232ZM7.9461 2.39749C8.37079 2.42788 8.75915 2.49064 9.18302 2.59736C9.54515 2.68854 10.1959 2.91086 10.1959 2.94339C10.1959 2.95337 9.97503 3.12747 9.70507 3.3303L9.2142 3.69907L9.00906 3.60474C8.52819 3.38365 8.08876 3.29281 7.49984 3.29281C7.05326 3.29281 6.77568 3.33118 6.41554 3.44274C5.50875 3.7236 4.85817 4.30018 4.6382 5.01788C4.56359 5.26139 4.56359 5.72539 4.6382 5.9689C4.70698 6.19327 4.83754 6.4345 4.99734 6.6324L5.12233 6.78721L4.56037 7.21296C4.25128 7.4471 3.98762 7.6387 3.97444 7.6387C3.90325 7.6387 3.0847 7.13068 2.63823 6.80942C2.16724 6.47052 1.08197 5.55406 1.08197 5.49525C1.08197 5.43175 2.04368 4.61364 2.56441 4.23412C3.99938 3.18833 5.37394 2.59689 6.75255 2.43206C7.22959 2.37504 7.51628 2.36672 7.9461 2.39749ZM12.1276 3.25796C11.9954 3.28936 11.8941 3.3522 11.8353 3.43905C11.7137 3.61892 11.7725 3.74089 12.0891 3.96615C12.451 4.22366 12.9027 4.57511 13.2134 4.84095C13.5712 5.14705 13.9177 5.4682 13.9177 5.4937C13.9177 5.50441 13.7849 5.63562 13.6226 5.78526C12.3469 6.96145 10.9852 7.81877 9.7339 8.2337C8.4389 8.66314 7.14662 8.71547 5.87131 8.39013C5.56378 8.31169 5.44334 8.30844 5.28893 8.37445C4.98456 8.50457 4.98166 8.84406 5.28377 8.97552C5.60686 9.11609 6.43187 9.25819 7.15319 9.29749C9.17411 9.40761 11.2184 8.69001 13.229 7.16468C13.8698 6.67858 14.8425 5.81775 14.9573 5.63522C15.014 5.54508 15.0143 5.44215 14.958 5.35277C14.9062 5.27032 14.5015 4.88286 14.0505 4.4839C13.6728 4.14981 12.6943 3.40302 12.5257 3.32017C12.3935 3.25521 12.2399 3.23122 12.1276 3.25796ZM8.02734 4.04504C8.21967 4.08881 8.52553 4.189 8.52553 4.20822C8.52553 4.22974 5.80388 6.27778 5.79025 6.2665C5.75125 6.2343 5.65149 6.05832 5.59643 5.92466C5.36269 5.35729 5.62204 4.71792 6.24384 4.32862C6.44505 4.20264 6.81286 4.06795 7.07491 4.0243C7.3275 3.98223 7.79612 3.99243 8.02734 4.04504ZM9.29579 4.84648C9.44393 5.09786 9.47763 5.22136 9.47546 5.50445C9.47376 5.72955 9.46166 5.7967 9.39587 5.94678C9.29098 6.18593 9.13546 6.37708 8.90313 6.55244C8.67076 6.72778 8.41748 6.84516 8.1006 6.92431C7.77103 7.00661 7.26704 7.01097 6.94339 6.93426C6.75446 6.8895 6.51914 6.81373 6.47544 6.78361C6.4605 6.77332 9.17423 4.71931 9.20274 4.71931C9.21271 4.71931 9.25458 4.77655 9.29579 4.84648Z" fill="#001039"/>
</svg>
