<svg width="15" height="11" viewBox="0 0 15 11" fill="none" xmlns="http://www.w3.org/2000/svg">
<path fill-rule="evenodd" clip-rule="evenodd" d="M6.81152 0.0331061C4.41706 0.27135 2.10067 1.88831 0.511875 4.43061C0.167109 4.98229 0 5.32955 0 5.49437C0 5.93914 1.13355 7.61382 2.06915 8.55124C4.24664 10.733 6.98033 11.5052 9.57776 10.6724C11.4698 10.0658 13.2146 8.60812 14.4881 6.57034C14.8383 6.00997 15 5.67204 15 5.50047C15 5.3289 14.8383 4.99097 14.4881 4.43061C12.5785 1.37491 9.72932 -0.257244 6.81152 0.0331061ZM8.17383 1.28338C9.33557 1.43188 10.3796 1.89058 11.4049 2.70298C11.8179 3.03022 12.6175 3.85837 12.9537 4.30708C13.2105 4.64979 13.4785 5.04798 13.6359 5.32072L13.7468 5.51296L13.4966 5.90966C13.1189 6.50837 12.7845 6.93483 12.2483 7.5014C11.5645 8.22385 11.012 8.6521 10.2393 9.05854C8.05723 10.2062 5.66159 9.93697 3.61811 8.31439C2.8101 7.67281 1.89009 6.59793 1.36351 5.68022L1.2532 5.48798L1.50343 5.09128C1.87465 4.50274 2.21353 4.06893 2.72273 3.53036C3.21562 3.00908 3.51996 2.73854 3.95508 2.43492C4.32829 2.17451 4.38653 2.1389 4.76074 1.94225C5.45716 1.57633 6.21835 1.34438 7.00195 1.25941C7.25757 1.2317 7.86703 1.24416 8.17383 1.28338ZM6.98268 2.49105C6.69565 2.54899 6.50162 2.61898 6.22559 2.76426C5.90109 2.93503 5.67715 3.11075 5.41986 3.39651C5.04732 3.81032 4.83275 4.2171 4.69623 4.76835C4.63421 5.01868 4.62237 5.13613 4.62237 5.50047C4.62237 5.86819 4.634 5.98142 4.69852 6.2422C4.97238 7.34902 5.79053 8.20277 6.84513 8.48233C7.12559 8.55666 7.87441 8.55666 8.15487 8.48233C8.64445 8.35255 9.08769 8.0997 9.44265 7.74776C9.8831 7.31101 10.1549 6.83449 10.3015 6.2422C10.366 5.98142 10.3776 5.86819 10.3776 5.50047C10.3776 5.13275 10.366 5.01952 10.3015 4.75874C10.0293 3.65878 9.20508 2.79439 8.17005 2.52342C7.91101 2.45559 7.24796 2.43752 6.98268 2.49105ZM7.89668 3.7341C8.14374 3.80056 8.45599 3.97048 8.63136 4.13396C8.83752 4.32611 9.03507 4.64675 9.12949 4.94252C9.29446 5.45928 9.21431 6.04986 8.9158 6.51684C8.7452 6.78369 8.53714 6.97779 8.27637 7.11331C7.75386 7.38485 7.23797 7.38398 6.72164 7.11065C6.45595 6.97005 6.25312 6.78109 6.0842 6.51684C5.68825 5.89745 5.68825 5.10349 6.0842 4.48411C6.15817 4.36839 6.28526 4.21208 6.36662 4.13678C6.53883 3.97743 6.85986 3.79941 7.08984 3.73581C7.30354 3.67669 7.68023 3.67589 7.89668 3.7341Z" fill="#001039"/>
</svg>
