<svg width="61" height="61" viewBox="0 0 61 61" fill="none" xmlns="http://www.w3.org/2000/svg">
<path fill-rule="evenodd" clip-rule="evenodd" d="M29.1097 0.225221C28.2262 0.504813 27.5061 1.02716 26.8962 1.831C26.2645 2.66357 26.0288 3.41781 26.0383 4.57612C26.045 5.39308 26.102 5.65741 26.4166 6.32891C26.9791 7.52907 27.9915 8.3992 29.3424 8.84357C29.5341 8.90664 29.5519 9.17061 29.558 12.0458C29.5625 14.1457 29.6118 15.316 29.7072 15.5941C29.8771 16.0883 30.3294 16.3007 30.8348 16.1238C31.3822 15.9321 31.4474 15.5027 31.4549 12.0458C31.461 9.1693 31.4788 8.90688 31.6705 8.84702C34.0703 8.09791 35.4645 5.73825 34.8719 3.42866C34.2079 0.839846 31.6539 -0.579932 29.1097 0.225221ZM31.7089 2.0939C32.9193 2.70614 33.4639 3.95947 33.0851 5.26086C32.9342 5.77926 32.7681 6.03024 32.2947 6.45529C31.1805 7.45562 29.8324 7.45562 28.7182 6.45529C28.2448 6.03024 28.0787 5.77926 27.9278 5.26086C27.549 3.95947 28.0936 2.70614 29.304 2.0939C30.1631 1.65943 30.8498 1.65943 31.7089 2.0939ZM11.5704 7.35654C9.59302 7.92193 7.87746 9.65122 7.32682 11.6341C6.6218 14.1731 7.64822 16.9725 9.80948 18.405C10.6935 18.991 11.4619 19.2736 12.5804 19.4238C13.7434 19.5801 14.9152 19.3579 16.1635 18.7443L17.0433 18.3119L18.1953 19.458C19.2214 20.4788 19.3941 20.6042 19.7745 20.6042C20.3062 20.6042 20.5968 20.3067 20.5968 19.7623C20.5968 19.4087 20.4492 19.2087 19.4491 18.206L18.3013 17.0556L18.7344 16.177C19.8084 13.9981 19.6896 11.7801 18.3946 9.83173C16.9605 7.67417 14.0949 6.63485 11.5704 7.35654ZM46.1604 7.31982C43.6345 7.99811 41.8648 10.1026 41.5564 12.7947C41.4469 13.7513 41.7251 15.0543 42.2785 16.177L42.7116 17.0556L41.5638 18.206C40.5417 19.2307 40.4161 19.4032 40.4161 19.7831C40.4161 20.314 40.714 20.6042 41.2591 20.6042C41.6133 20.6042 41.8135 20.4568 42.8176 19.458L43.9696 18.3119L44.8494 18.7443C46.0953 19.3568 47.2699 19.5801 48.4273 19.4245C49.6191 19.2644 50.5194 18.9173 51.3746 18.2886C53.4473 16.765 54.373 14.1078 53.6891 11.6448C53.1185 9.59006 51.3541 7.84657 49.3059 7.31386C48.4374 7.08792 47.0135 7.09066 46.1604 7.31982ZM15.1675 9.33336C17.3731 10.4109 18.2902 13.0339 17.2298 15.2311C16.893 15.9291 15.9153 16.9055 15.2163 17.2418C13.0204 18.2987 10.3885 17.3776 9.30445 15.1728C8.99367 14.5406 8.95594 14.3414 8.95594 13.3312C8.95594 12.3403 8.99785 12.109 9.29036 11.4832C10.0782 9.79775 11.5635 8.89412 13.4429 8.95695C14.2846 8.98509 14.5923 9.05222 15.1675 9.33336ZM49.5109 9.29902C50.4582 9.73909 51.2082 10.4718 51.6689 11.4071C52.0242 12.1286 52.057 12.2906 52.057 13.3294C52.057 14.3313 52.0178 14.5435 51.7217 15.1456C50.6224 17.3812 48.0079 18.3062 45.7966 17.2418C45.0976 16.9055 44.1199 15.9291 43.7831 15.2311C42.6164 12.8136 43.8588 9.91472 46.4161 9.0881C47.2375 8.82258 48.6997 8.92226 49.5109 9.29902ZM24.7975 20.8351C21.8874 21.9323 19.4026 22.9189 19.2756 23.0274C19.0659 23.2067 19.0447 23.3932 19.0447 25.0533C19.0447 26.8104 19.0554 26.8918 19.321 27.141C19.5981 27.401 19.9319 27.4645 20.2929 27.3262C20.6311 27.1966 20.8356 26.6151 20.8356 25.7836C20.8356 25.0188 20.8454 24.9924 21.1042 25.0611C21.252 25.1002 23.1996 25.8189 25.4322 26.6579L29.4916 28.1836L29.5225 34.1132L29.5536 40.0427L29.1643 39.8839C28.9504 39.7966 26.9888 39.0583 24.8054 38.2433L20.8356 36.7614V33.7678C20.8356 31.9849 20.7848 30.6291 20.7102 30.4152C20.5924 30.0774 20.1843 29.7848 19.8312 29.7848C19.7447 29.7848 19.5323 29.8961 19.3593 30.032L19.0447 30.279V34.0272C19.0447 37.5826 19.0565 37.7857 19.2751 37.9725C19.5734 38.2275 30.1135 42.1805 30.5064 42.1846C30.9161 42.189 41.4498 38.2427 41.7373 37.9772C41.9476 37.783 41.9682 37.5886 41.9682 35.8099V33.8559L41.6536 33.6088C41.142 33.2069 40.6355 33.2996 40.352 33.8472C40.2303 34.0822 40.1773 34.5753 40.1773 35.4729V36.7614L36.2075 38.2433C34.024 39.0583 32.0625 39.7966 31.8485 39.8839L31.4593 40.0427L31.4904 34.1132L31.5213 28.1836L35.5807 26.6579C37.8133 25.8189 39.7609 25.1002 39.9087 25.0611L40.1773 24.9898V27.572C40.1773 29.6053 40.2144 30.2261 40.352 30.4916C40.6346 31.0373 41.2605 31.1493 41.7069 30.734C41.9646 30.4942 41.9682 30.4415 41.9682 26.8637C41.9682 23.4307 41.9558 23.2251 41.7373 23.0232C41.412 22.7226 30.8843 18.8094 30.4468 18.8264C30.2498 18.834 27.7076 19.738 24.7975 20.8351ZM34.599 22.1534C36.7516 22.959 38.4977 23.6325 38.4793 23.6504C38.461 23.6683 36.6597 24.3518 34.4763 25.1695L30.5064 26.656L26.5366 25.1695C24.3533 24.3518 22.5519 23.6683 22.5335 23.6504C22.4738 23.5919 30.4434 20.6202 30.5661 20.6551C30.6318 20.6738 32.4466 21.3481 34.599 22.1534ZM3.28869 26.153C1.9645 26.5233 0.768297 27.5809 0.279739 28.8135C-0.0932463 29.7544 -0.0932463 31.246 0.279739 32.1869C0.99013 33.9789 2.98221 35.1804 4.90265 34.975C6.73259 34.7793 8.17463 33.5594 8.81792 31.6627C8.88299 31.4711 9.1453 31.454 12.0386 31.454C15.287 31.454 15.8397 31.3878 16.0624 30.9725C16.2503 30.6218 16.1977 30.161 15.9405 29.904C15.7129 29.6768 15.5425 29.6656 12.3085 29.6656H8.91546L8.72109 29.0815C8.14562 27.3511 6.61762 26.1711 4.77359 26.0329C4.2153 25.9911 3.72663 26.0305 3.28869 26.153ZM55.6201 26.0936C54.1237 26.3893 52.7886 27.5878 52.2918 29.0815L52.0974 29.6656H48.7044C45.4704 29.6656 45.3 29.6768 45.0724 29.904C44.8152 30.161 44.7626 30.6218 44.9505 30.9725C45.1732 31.3878 45.7259 31.454 48.9743 31.454C51.8676 31.454 52.1299 31.4711 52.195 31.6627C52.6629 33.0421 53.4755 34.0023 54.6407 34.5527C56.4849 35.4236 58.5879 34.9816 59.9406 33.4389C60.7087 32.563 61 31.7547 61 30.5002C61 29.2396 60.6896 28.3807 59.9287 27.5354C58.812 26.2952 57.2484 25.7719 55.6201 26.0936ZM5.2834 27.9386C6.10709 28.1829 6.91252 29.0579 7.09471 29.9065C7.29159 30.8232 7.08672 31.5548 6.42838 32.286C5.48243 33.3366 4.12922 33.5094 2.95964 32.7289C2.2477 32.2537 1.73204 31.3199 1.73383 30.5087C1.73622 29.3921 2.51813 28.3182 3.61284 27.9281C4.20181 27.7181 4.54746 27.7204 5.2834 27.9386ZM57.4001 27.9281C58.4948 28.3182 59.2767 29.3921 59.2791 30.5087C59.2809 31.3199 58.7652 32.2537 58.0533 32.7289C57.3185 33.2192 56.6352 33.3234 55.7806 33.0753C54.9053 32.8212 54.1062 31.9697 53.9173 31.0898C53.625 29.7287 54.3999 28.361 55.6985 27.9462C56.3748 27.7301 56.831 27.7253 57.4001 27.9281ZM18.1934 41.5428L17.0452 42.6894L16.1644 42.2565C13.9816 41.1835 11.7608 41.3019 9.80948 42.5954C7.64822 44.0279 6.6218 46.8273 7.32682 49.3663C7.88558 51.3782 9.60389 53.0911 11.6251 53.6509C14.1565 54.3518 16.9627 53.3229 18.3946 51.1686C18.9814 50.2859 19.2644 49.5185 19.4148 48.4016C19.5713 47.2402 19.3488 46.0699 18.7344 44.8234L18.3013 43.9448L19.4491 42.7944C20.4712 41.7697 20.5968 41.5972 20.5968 41.2173C20.5968 40.6856 20.2988 40.3962 19.7509 40.3962C19.3928 40.3962 19.1981 40.5395 18.1934 41.5428ZM40.6137 40.6143C40.505 40.7342 40.4161 41.0149 40.4161 41.2381C40.4161 41.5917 40.5637 41.7916 41.5638 42.7944L42.7116 43.9448L42.2785 44.8234C41.2177 46.9754 41.3204 49.1929 42.5688 51.0925C44.7209 54.3672 49.4104 54.8327 52.0897 52.0375C52.954 51.1356 53.4044 50.3803 53.6891 49.3555C54.373 46.8926 53.4473 44.2354 51.3746 42.7117C50.5194 42.083 49.6191 41.736 48.4273 41.5758C47.2699 41.4202 46.0953 41.6436 44.8494 42.256L43.9696 42.6885L42.8176 41.5423C41.7915 40.5216 41.6187 40.3962 41.2384 40.3962C40.9763 40.3962 40.735 40.4804 40.6137 40.6143ZM14.7505 43.5572C15.3934 43.7837 16.2007 44.3527 16.6507 44.8965C18.4913 47.1207 17.7575 50.3981 15.1307 51.6862C14.528 51.9818 14.3152 52.021 13.3138 52.021C12.3351 52.021 12.0867 51.9775 11.502 51.7039C10.5527 51.2594 9.80387 50.5271 9.34397 49.5933C8.98865 48.8718 8.95594 48.7098 8.95594 47.6709C8.95594 46.6588 8.99355 46.4601 9.30445 45.8275C10.3051 43.7924 12.6471 42.8161 14.7505 43.5572ZM48.5588 43.3917C49.9589 43.6883 51.0847 44.5592 51.7084 45.8275C52.0193 46.4601 52.057 46.6588 52.057 47.6709C52.057 48.7098 52.0242 48.8718 51.6689 49.5933C51.209 50.5271 50.4602 51.2594 49.5109 51.7039C48.9262 51.9775 48.6778 52.021 47.6991 52.021C46.6875 52.021 46.4881 51.9833 45.8549 51.673C44.5499 51.0331 43.6895 49.8977 43.4014 48.4352C42.9614 46.2023 44.592 43.835 46.8791 43.3862C47.623 43.2402 47.8469 43.2409 48.5588 43.3917ZM30.0037 44.9338C29.6334 45.1494 29.5526 45.8792 29.552 49.0142C29.5513 51.8357 29.5341 52.0937 29.3424 52.1568C27.4845 52.7679 26.2194 54.2599 26.0255 56.0687C25.5966 60.0678 30.5037 62.5713 33.49 59.8771C36.1477 57.4793 35.1488 53.2392 31.6705 52.1534C31.4787 52.0934 31.4616 51.837 31.4609 49.0142C31.4603 45.8317 31.3798 45.1384 30.9866 44.9283C30.7029 44.7765 30.2696 44.779 30.0037 44.9338ZM31.6698 54.0734C32.6779 54.5413 33.3631 55.8168 33.1978 56.9176C33.0141 58.1409 31.7455 59.2358 30.5149 59.2332C29.3284 59.2307 28.1891 58.3394 27.8639 57.1593C27.697 56.5536 27.8762 55.5534 28.249 55.0101C29.002 53.9127 30.462 53.5129 31.6698 54.0734Z" fill="white"/>
</svg>
