<svg width="150" height="48" viewBox="0 0 150 48" fill="none" xmlns="http://www.w3.org/2000/svg">
<path d="M24 2H141C145.971 2 150 6.02944 150 11V37C150 41.9706 145.971 46 141 46H24V2Z" fill="url(#paint0_linear_2245_49)"/>
<circle cx="24" cy="24" r="24" fill="#034F98"/>
<circle cx="24" cy="24" r="22" fill="#00082E"/>
<ellipse cx="24.5" cy="24" rx="16.5" ry="17" fill="#004889"/>
<path d="M55.712 12.424H56.84C57.816 12.424 58.304 13.256 58.304 14.256C58.304 15.248 57.816 16.064 56.84 16.064H55.712V12.424ZM56.84 17C58.416 17 59.328 15.824 59.328 14.256C59.328 12.688 58.416 11.488 56.84 11.488H54.688V17H56.84ZM61.0789 14.256C61.0789 13.256 61.8549 12.432 62.8549 12.432C63.8389 12.432 64.6309 13.256 64.6309 14.256C64.6309 15.264 63.8389 16.072 62.8549 16.072C61.8549 16.072 61.0789 15.264 61.0789 14.256ZM60.0629 14.256C60.0629 15.808 61.2869 17.08 62.8549 17.08C64.4229 17.08 65.6549 15.808 65.6549 14.256C65.6549 12.696 64.4229 11.424 62.8549 11.424C61.2869 11.424 60.0629 12.696 60.0629 14.256ZM70.7299 15.328L69.8979 12.256H69.0819L68.2419 15.328L67.0659 11.488H65.9619L67.8179 17H68.6499L69.4819 13.872L70.3299 17H71.1539L73.0259 11.488H71.9139L70.7299 15.328ZM77.8227 11.488H76.7987V15.072L74.6947 11.488H73.7427V17H74.7587V13.376L76.8867 17H77.8227V11.488ZM79.1958 17H82.3478V16.088H80.2198V11.488H79.1958V17ZM83.7743 14.256C83.7743 13.256 84.5503 12.432 85.5503 12.432C86.5343 12.432 87.3263 13.256 87.3263 14.256C87.3263 15.264 86.5343 16.072 85.5503 16.072C84.5503 16.072 83.7743 15.264 83.7743 14.256ZM82.7583 14.256C82.7583 15.808 83.9823 17.08 85.5503 17.08C87.1183 17.08 88.3503 15.808 88.3503 14.256C88.3503 12.696 87.1183 11.424 85.5503 11.424C83.9823 11.424 82.7583 12.696 82.7583 14.256ZM92.7536 17H93.8336L91.7696 11.488H90.6656L88.6016 17H89.6896L90.1936 15.664H92.2496L92.7536 17ZM91.2176 12.664L91.9136 14.768H90.5376L91.2176 12.664ZM95.5479 12.424H96.6759C97.6519 12.424 98.1399 13.256 98.1399 14.256C98.1399 15.248 97.6519 16.064 96.6759 16.064H95.5479V12.424ZM96.6759 17C98.2519 17 99.1639 15.824 99.1639 14.256C99.1639 12.688 98.2519 11.488 96.6759 11.488H94.5239V17H96.6759Z" fill="white"/>
<path d="M60.747 33H62.502L59.148 24.043H57.354L54 33H55.768L56.587 30.829H59.928L60.747 33ZM58.251 25.954L59.382 29.373H57.146L58.251 25.954ZM70.2539 24.043H68.5899V29.867L65.1709 24.043H63.6239V33H65.2749V27.111L68.7329 33H70.2539V24.043ZM74.1492 25.564H75.9822C77.5682 25.564 78.3612 26.916 78.3612 28.541C78.3612 30.153 77.5682 31.479 75.9822 31.479H74.1492V25.564ZM75.9822 33C78.5432 33 80.0252 31.089 80.0252 28.541C80.0252 25.993 78.5432 24.043 75.9822 24.043H72.4852V33H75.9822ZM85.2755 25.525C86.1075 25.525 86.4845 26.292 86.4845 26.942C86.4845 27.605 86.1075 28.333 85.2235 28.333H83.4295V25.525H85.2755ZM85.9385 29.75C87.5375 29.503 88.2135 28.216 88.2135 26.942C88.2135 25.486 87.3295 24.043 85.3535 24.043H81.7655V33H83.4295V29.815H84.1185L86.2245 33H88.2265L85.9385 29.75ZM91.0716 28.541C91.0716 26.916 92.3326 25.577 93.9576 25.577C95.5566 25.577 96.8436 26.916 96.8436 28.541C96.8436 30.179 95.5566 31.492 93.9576 31.492C92.3326 31.492 91.0716 30.179 91.0716 28.541ZM89.4206 28.541C89.4206 31.063 91.4096 33.13 93.9576 33.13C96.5056 33.13 98.5076 31.063 98.5076 28.541C98.5076 26.006 96.5056 23.939 93.9576 23.939C91.4096 23.939 89.4206 26.006 89.4206 28.541ZM100.199 33H101.85V24.043H100.199V33ZM105.748 25.564H107.581C109.167 25.564 109.96 26.916 109.96 28.541C109.96 30.153 109.167 31.479 107.581 31.479H105.748V25.564ZM107.581 33C110.142 33 111.624 31.089 111.624 28.541C111.624 25.993 110.142 24.043 107.581 24.043H104.084V33H107.581ZM122.218 33H123.973L120.619 24.043H118.825L115.471 33H117.239L118.058 30.829H121.399L122.218 33ZM119.722 25.954L120.853 29.373H118.617L119.722 25.954ZM128.709 25.525C129.541 25.525 129.918 26.292 129.918 26.942C129.918 27.605 129.515 28.333 128.657 28.333H126.759V25.525H128.709ZM125.095 33H126.759V29.815H128.735C130.724 29.815 131.582 28.398 131.582 26.942C131.582 25.486 130.724 24.043 128.735 24.043H125.095V33ZM136.669 25.525C137.501 25.525 137.878 26.292 137.878 26.942C137.878 27.605 137.475 28.333 136.617 28.333H134.719V25.525H136.669ZM133.055 33H134.719V29.815H136.695C138.684 29.815 139.542 28.398 139.542 26.942C139.542 25.486 138.684 24.043 136.695 24.043H133.055V33Z" fill="white"/>
<path fill-rule="evenodd" clip-rule="evenodd" d="M21.636 15.0458C21.5044 15.1058 21.4376 15.2201 21.4407 15.3801C21.4421 15.4566 21.5654 15.7948 21.7552 16.243C21.9269 16.6483 22.0557 16.9901 22.0415 17.0024C22.0272 17.0148 21.8991 17.1025 21.7568 17.1973C21.05 17.668 20.4706 18.4348 20.1771 19.2878C19.9814 19.857 19.8993 20.6576 20.0189 20.8317C20.1465 21.0173 20.021 21.0117 23.9995 21.0117C27.9779 21.0117 27.8524 21.0173 27.98 20.8317C28.0996 20.6576 28.0175 19.857 27.8218 19.2878C27.5284 18.4348 26.9489 17.668 26.2421 17.1973C26.0998 17.1025 25.9717 17.0148 25.9575 17.0024C25.9432 16.9901 26.0726 16.6483 26.245 16.243C26.5734 15.4709 26.608 15.3258 26.5028 15.162C26.38 14.971 26.0407 14.9623 25.9222 15.1472C25.8949 15.1897 25.7355 15.5491 25.5679 15.9457C25.4004 16.3424 25.2595 16.6724 25.2548 16.6792C25.25 16.686 25.1015 16.6548 24.9248 16.6099C24.6499 16.5401 24.5156 16.5283 23.9995 16.5283C23.4833 16.5283 23.349 16.5401 23.0742 16.6099C22.8974 16.6548 22.7486 16.686 22.7437 16.6792C22.7387 16.6724 22.629 16.4136 22.4999 16.104C22.1325 15.2226 22.0734 15.1064 21.9628 15.0481C21.8424 14.9846 21.7713 14.9841 21.636 15.0458ZM22.758 18.8569C23.0308 19.1076 22.8179 19.5513 22.4579 19.4825C22.3025 19.4527 22.1708 19.2828 22.1708 19.1119C22.1708 19.0077 22.1952 18.9517 22.277 18.8684C22.4199 18.7227 22.6071 18.7182 22.758 18.8569ZM25.7219 18.8684C25.8612 19.0103 25.8681 19.1988 25.7398 19.3543C25.5778 19.5506 25.3038 19.5317 25.1709 19.3151C24.9488 18.953 25.4258 18.5664 25.7219 18.8684ZM17.8218 21.7984C17.4089 21.9119 17.111 22.2547 17.0282 22.7114C17.0045 22.842 16.9954 23.6057 17.0022 24.8908L17.0127 26.8692L17.1024 27.0643C17.2203 27.3206 17.3652 27.4843 17.5794 27.6031C17.8937 27.7776 18.3079 27.7864 18.6177 27.6252C18.7914 27.5349 19.0125 27.2995 19.1065 27.1047L19.1863 26.9395L19.1958 24.8139C19.204 22.9537 19.1984 22.6673 19.1507 22.5209C19.0377 22.1741 18.7453 21.8938 18.3979 21.7995C18.1834 21.7413 18.0304 21.741 17.8218 21.7984ZM20.183 21.7847C20.143 21.8013 20.077 21.858 20.0364 21.9106L19.9626 22.0062V25.2079C19.9626 28.2917 19.9652 28.4181 20.0306 28.6424C20.2095 29.2548 20.7549 29.8074 21.2996 29.9282L21.4118 29.953V30.9129C21.4118 31.4408 21.4276 31.9577 21.4468 32.0614C21.5979 32.8735 22.4541 33.2567 23.1253 32.8127C23.3374 32.6724 23.4632 32.5132 23.5535 32.271C23.6136 32.1096 23.6199 31.9943 23.6199 31.0552V30.0178H23.9995H24.379V31.0552C24.379 31.9943 24.3853 32.1096 24.4454 32.271C24.5357 32.5132 24.6615 32.6724 24.8737 32.8127C25.5448 33.2567 26.4011 32.8735 26.5521 32.0614C26.5714 31.9577 26.5872 31.4408 26.5872 30.9129V29.953L26.6993 29.9282C27.2441 29.8074 27.7894 29.2548 27.9683 28.6424C28.0338 28.4181 28.0363 28.2917 28.0363 25.2037V21.9979L27.9356 21.883L27.8349 21.7681L24.0454 21.7613C21.9612 21.7575 20.2231 21.7681 20.183 21.7847ZM29.5847 21.7994C29.3762 21.8609 29.1269 22.0381 29.0024 22.2134C28.7903 22.5119 28.7928 22.4786 28.8032 24.8139L28.8126 26.9395L28.8924 27.1047C28.9864 27.2995 29.2075 27.5349 29.3812 27.6252C29.691 27.7864 30.1052 27.7776 30.4195 27.6031C30.6337 27.4843 30.7786 27.3206 30.8965 27.0643L30.9863 26.8692L30.9967 24.8908C31.0077 22.8207 30.9981 22.6443 30.8587 22.3597C30.764 22.1664 30.5307 21.9425 30.3291 21.8516C30.1328 21.7631 29.7895 21.739 29.5847 21.7994Z" fill="white"/>
<defs>
<linearGradient id="paint0_linear_2245_49" x1="31.033" y1="2" x2="146.161" y2="45.6127" gradientUnits="userSpaceOnUse">
<stop stop-color="#004C8F"/>
<stop offset="1" stop-color="#00062B"/>
</linearGradient>
</defs>
</svg>
