<svg width="30" height="30" viewBox="0 0 30 30" fill="none" xmlns="http://www.w3.org/2000/svg">
<path fill-rule="evenodd" clip-rule="evenodd" d="M24.4854 0.0911433C23.994 0.242045 23.7612 0.417301 22.3345 1.71028C20.7813 3.11795 20.7436 3.15677 20.5567 3.54453L20.4137 3.84123L20.0564 3.67553C18.1548 2.79395 15.6411 2.42249 13.4677 2.70197C9.20805 3.2498 5.62282 5.85291 3.76204 9.74899C2.80206 11.7591 2.40651 14.1294 2.65806 16.3646C2.69982 16.735 2.7366 17.0826 2.73988 17.1369C2.74322 17.1912 2.28267 17.6563 1.71647 18.1704C0.574985 19.207 0.442829 19.3576 0.180547 19.9215C0.0220779 20.2622 -0.000766376 20.3901 1.90963e-05 20.9335C0.000739113 21.427 0.0318308 21.6331 0.15083 21.932C0.567589 22.9785 1.52371 23.628 2.64745 23.628H3.14472L3.28899 26.0229C3.42566 28.2915 3.44202 28.4371 3.6003 28.7837C3.80524 29.2327 4.14627 29.596 4.57867 29.826C4.86681 29.9792 4.98031 30 5.52778 30C6.07526 30 6.18876 29.9792 6.47689 29.826C7.0211 29.5366 7.46705 28.9733 7.58271 28.4294C7.60568 28.3214 7.66741 27.5587 7.7199 26.7344C7.7724 25.9102 7.82346 25.2279 7.83341 25.2182C7.84335 25.2085 8.08711 25.3474 8.37512 25.5269C9.93284 26.4976 11.7616 27.1456 13.5232 27.3509C14.6102 27.4776 16.4885 27.4022 17.483 27.1919C21.8447 26.2694 25.3661 23.1437 26.7629 18.9548C27.2092 17.6162 27.3369 16.8663 27.3735 15.3674C27.4069 14.0027 27.3254 13.1558 27.0535 12.0438C26.9386 11.5738 26.9305 11.4424 26.993 11.0618C27.0555 10.6807 27.2592 7.70877 27.2592 7.17822C27.2592 6.99289 27.2666 6.98896 27.6123 6.98896C28.0988 6.98896 28.7402 6.77442 29.09 6.49461C29.7472 5.96898 30.0449 5.2931 29.9945 4.4413C29.9608 3.87239 29.8067 3.47095 29.4778 3.09484C29.2149 2.79435 26.8001 0.607024 26.4841 0.383258C25.9739 0.0219445 25.1179 -0.103163 24.4854 0.0911433ZM25.8798 0.930759C26 0.992953 26.5583 1.4577 27.1206 1.96357C29.1365 3.77747 29.22 3.88235 29.22 4.59941C29.22 5.07607 29.0692 5.43732 28.7344 5.76256C28.3245 6.16073 27.7978 6.28008 27.1306 6.12603C26.8256 6.05559 26.784 6.06024 26.6665 6.17789C26.5511 6.29324 26.5269 6.47805 26.4392 7.90825C26.3852 8.78891 26.3333 9.58309 26.3241 9.67311C26.3105 9.80418 26.2535 9.73249 26.0373 9.31304C25.0605 7.41777 23.4622 5.6677 21.6726 4.53381C21.3736 4.34435 21.1718 4.17223 21.1718 4.10664C21.1718 3.88634 21.4948 3.53105 22.647 2.48384C24.1644 1.10464 24.3293 0.969123 24.6242 0.859073C24.9363 0.742541 25.5878 0.779792 25.8798 0.930759ZM16.4678 3.48352C18.0875 3.69917 19.5821 4.2104 20.8772 4.99169C23.7693 6.73632 25.7238 9.48921 26.4244 12.8048C26.554 13.4182 26.5716 13.6896 26.5695 15.0414C26.5674 16.3891 26.5487 16.6652 26.4187 17.2673C25.4028 21.9718 21.9446 25.4395 17.2771 26.4341C16.4416 26.6121 14.5342 26.6818 13.5994 26.5684C11.5969 26.3257 9.72941 25.5756 8.02277 24.3287C7.9024 24.2408 7.87962 24.17 7.89644 23.9359L7.91693 23.6503L8.18693 23.6716C8.56115 23.7009 9.14724 23.5828 9.55568 23.3958L9.8992 23.2385L10.5772 23.5851C11.396 24.0039 12.1546 24.2769 13.063 24.4799C13.6497 24.6109 13.9169 24.6313 15.0189 24.6291C16.0807 24.627 16.4019 24.6028 16.9291 24.4852C18.9111 24.0433 20.382 23.2386 21.7978 21.8219C23.2115 20.4073 24.0208 18.9275 24.4611 16.9519C24.5787 16.4246 24.6029 16.1034 24.605 15.0414C24.6072 13.9392 24.5868 13.672 24.4558 13.0852C24.0302 11.1799 23.1719 9.58538 21.8591 8.26118C20.5573 6.94811 19.14 6.12558 17.4152 5.68197C13.3678 4.64118 9.16079 6.28813 6.8858 9.80404C5.93204 11.278 5.43902 12.8715 5.3536 14.756L5.31165 15.6818L5.01061 15.7224C4.60701 15.7767 4.09639 16.0223 3.76597 16.3208C3.61705 16.4554 3.47914 16.5494 3.4595 16.5298C3.43986 16.5102 3.40733 16.0568 3.38717 15.5223C3.2899 12.9393 3.93929 10.6629 5.40296 8.45634C6.05588 7.47197 7.43929 6.08918 8.43495 5.4258C10.8852 3.79324 13.6937 3.11415 16.4678 3.48352ZM16.6433 6.30253C18.388 6.6355 19.9532 7.47014 21.2416 8.75454C22.517 10.0261 23.3088 11.485 23.7027 13.289C23.8701 14.0557 23.8705 15.9625 23.7034 16.7436C23.3309 18.4854 22.5724 19.913 21.3499 21.1732C20.0623 22.5005 18.5467 23.3368 16.7208 23.7274C15.9398 23.8945 14.0333 23.8941 13.2668 23.7267C12.5305 23.5659 11.739 23.2915 11.0741 22.9667L10.5193 22.6956L10.7833 22.1788C11.0096 21.7358 11.0516 21.5876 11.0775 21.1397C11.1144 20.5016 10.9476 19.8785 10.6144 19.4097C10.4055 19.1158 7.62244 16.5519 7.07038 16.1447C6.9288 16.0402 6.66979 15.904 6.49476 15.8418C6.2624 15.7593 6.16604 15.6866 6.13731 15.5722C6.07139 15.3096 6.17625 13.9461 6.31456 13.2674C7.09945 9.41517 10.2185 6.61167 14.2007 6.179C14.6846 6.12649 16.094 6.19772 16.6433 6.30253ZM6.20198 16.6133C6.48933 16.7209 6.86092 17.0213 8.2304 18.2534C9.66094 19.5404 9.93284 19.8146 10.0833 20.1221C10.6754 21.3326 9.77987 22.8291 8.46191 22.8313C8.25769 22.8317 7.93984 22.7972 7.75558 22.7547C7.44794 22.6837 7.40971 22.6883 7.28645 22.8116C7.1689 22.9292 7.14494 23.0708 7.09356 23.9527C6.83847 28.3269 6.84332 28.2721 6.68891 28.5483C6.38107 29.0991 5.83294 29.3442 5.18211 29.2221C4.89934 29.169 4.42596 28.7662 4.30441 28.4753C4.2402 28.3216 4.16014 27.429 4.04926 25.632C3.96037 24.1915 3.85905 22.9594 3.82409 22.8941C3.73232 22.7225 3.53177 22.6799 3.25214 22.7726C2.83944 22.9094 2.22644 22.8655 1.82814 22.6705C0.763891 22.1498 0.412196 20.6883 1.13987 19.81C1.36661 19.5365 4.22351 16.958 4.49744 16.7798C4.9862 16.4618 5.62924 16.399 6.20198 16.6133Z" fill="#00092E"/>
</svg>
