<svg width="55" height="55" viewBox="0 0 55 55" fill="none" xmlns="http://www.w3.org/2000/svg">
<path fill-rule="evenodd" clip-rule="evenodd" d="M27.0157 0.0613203C26.8973 0.114367 25.8439 1.12119 24.6747 2.29877L22.5489 4.43992V4.92089C22.5489 5.46826 22.7459 5.80967 23.1959 6.04231C23.6021 6.25224 24.0505 6.24621 24.3816 6.02638C24.528 5.92911 24.9988 5.50667 25.4281 5.08757L26.2084 4.32543V6.5589C26.2084 8.93419 26.2664 9.27528 26.743 9.70009C26.9132 9.8517 27.1366 9.91529 27.5 9.91529C27.8634 9.91529 28.0868 9.8517 28.257 9.70009C28.7336 9.27528 28.7916 8.93419 28.7916 6.5589V4.32543L29.5719 5.08757C30.0012 5.50667 30.472 5.92911 30.6184 6.02638C30.9495 6.24621 31.3979 6.25224 31.8041 6.04231C32.2543 5.80957 32.4511 5.46826 32.4511 4.92014V4.4382L30.2663 2.24669C28.2648 0.239077 28.0457 0.0513134 27.6562 0.00999475C27.4223 -0.014861 27.1341 0.00827314 27.0157 0.0613203ZM8.18004 7.59595C8.06164 7.64448 7.86791 7.79168 7.74951 7.92306C7.54695 8.14805 7.53242 8.33786 7.5026 11.1499L7.47096 14.1378L7.74833 14.4672C8.13322 14.9245 8.64716 15.082 9.11256 14.885C9.80894 14.5905 9.89806 14.3884 9.93864 13.012L9.97513 11.7728L11.5612 13.3457C13.1011 14.8729 13.1605 14.9187 13.602 14.9187C14.4769 14.9187 14.907 14.4853 14.907 13.6036C14.907 13.1757 14.8495 13.1015 13.3336 11.5738L11.7602 9.98824L12.9998 9.95177C14.3765 9.9112 14.5788 9.82211 14.8734 9.12593C15.0696 8.66239 14.9132 8.14719 14.4611 7.76682L14.1372 7.49427L11.2662 7.50105C9.68721 7.50482 8.29843 7.54753 8.18004 7.59595ZM40.4548 7.85011C40.1351 8.143 40.0644 8.28481 40.0547 8.65184C40.0418 9.14573 40.3146 9.6097 40.7491 9.83297C40.9053 9.91324 41.4553 9.96651 42.1366 9.96747L43.2653 9.96909L41.7382 11.5024C40.8984 12.3458 40.1598 13.1735 40.0969 13.342C39.9563 13.7192 40.1097 14.3728 40.4006 14.6358C40.7019 14.9085 41.2249 15.0262 41.6251 14.9115C41.8582 14.8446 42.4776 14.3084 43.499 13.2891L45.0248 11.7666L45.0613 13.0089C45.1019 14.3887 45.1907 14.5904 45.8874 14.885C46.3511 15.0812 46.8665 14.9249 47.2469 14.4729L47.5196 14.1491V11.3005C47.5196 8.96485 47.4902 8.39521 47.3563 8.13633C47.042 7.52881 46.8455 7.49427 43.7024 7.49427H40.8433L40.4548 7.85011ZM21.3112 17.6137C16.9997 19.529 15.4366 20.2714 15.2574 20.4893L15.0158 20.783V27.508V34.2331L15.2574 34.5268C15.5746 34.9123 26.9633 39.9897 27.511 39.9897C27.7483 39.9897 29.8708 39.1018 33.725 37.3902C38.8711 35.1049 39.6032 34.7505 39.7816 34.458C39.9746 34.1417 39.9846 33.8017 39.9846 27.508C39.9846 21.2143 39.9746 20.8743 39.7816 20.558C39.6032 20.2655 38.8711 19.9111 33.725 17.6258C29.6706 15.8253 27.7564 15.0272 27.4973 15.029C27.2463 15.0308 25.2116 15.8809 21.3112 17.6137ZM31.6707 19.4618C33.8167 20.4145 35.5711 21.2226 35.5696 21.2575C35.5659 21.3426 27.702 24.8184 27.5138 24.8182C27.349 24.818 19.637 21.411 19.5059 21.2806C19.3958 21.171 27.3995 17.6125 27.6076 17.6786C27.6964 17.7067 29.5249 18.5093 31.6707 19.4618ZM2.21173 24.762L0 26.9657V27.5049V28.044L2.15264 30.1997C4.54347 32.5941 4.76444 32.7404 5.47847 32.4017C5.9316 32.1868 6.18885 31.7694 6.18885 31.2495C6.18885 30.7997 6.02298 30.5515 5.07302 29.5793L4.31067 28.7992H6.54478C8.92076 28.7992 9.26196 28.7412 9.68689 28.2648C9.83854 28.0946 9.90215 27.8713 9.90215 27.508C9.90215 27.1447 9.83854 26.9214 9.68689 26.7513C9.26196 26.2748 8.92076 26.2168 6.54478 26.2168H4.31067L5.07302 25.4367C5.49225 25.0076 5.91481 24.5368 6.01211 24.3905C6.23201 24.0595 6.23803 23.6112 6.02804 23.2052C5.79523 22.7551 5.45383 22.5584 4.90555 22.5584H4.42346L2.21173 24.762ZM49.3727 22.7263C49.0632 22.9429 48.8112 23.4341 48.8112 23.8203C48.8112 24.2143 49.0002 24.4882 49.927 25.4367L50.6893 26.2168H48.4552C46.0079 26.2168 45.6985 26.2755 45.2668 26.8225C45.0729 27.0682 45.0336 27.2257 45.0746 27.5931C45.103 27.847 45.2167 28.1563 45.3273 28.2805C45.7365 28.7397 46.0954 28.7992 48.4552 28.7992H50.6893L49.927 29.5793C48.977 30.5515 48.8112 30.7997 48.8112 31.2495C48.8112 31.9089 49.1444 32.312 49.8527 32.5094C50.3114 32.6373 50.829 32.2375 52.9012 30.1541L55 28.044V27.5049V26.9657L52.7883 24.762L50.5765 22.5584H50.0945C49.8294 22.5584 49.5045 22.6339 49.3727 22.7263ZM21.8525 25.1181L26.1546 27.0322L26.1826 31.8969C26.198 34.5725 26.1803 36.7617 26.1433 36.7617C26.1064 36.7617 24.1442 35.9052 21.7831 34.8584L17.4902 32.9552V28.0796C17.4902 25.398 17.5038 23.204 17.5204 23.204C17.5369 23.204 19.4865 24.0653 21.8525 25.1181ZM37.5098 28.0821V32.9602L33.2314 34.8611C30.8782 35.9067 28.9162 36.762 28.8712 36.7619C28.8262 36.7618 28.802 34.5724 28.8174 31.8967L28.8454 27.0319L33.0969 25.1283C35.4352 24.0814 37.3846 23.2201 37.4291 23.2144C37.4735 23.2087 37.5098 25.3991 37.5098 28.0821ZM8.27852 40.1402C8.09598 40.221 7.84164 40.4204 7.71345 40.5833C7.48786 40.8701 7.48043 40.9702 7.48043 43.7218C7.48043 46.0518 7.50981 46.6209 7.64371 46.8797C7.95778 47.4869 8.1555 47.5217 11.2878 47.5217H14.1372L14.4611 47.2492C14.9132 46.8688 15.0696 46.3536 14.8734 45.8901C14.5787 45.1936 14.3768 45.1048 12.9967 45.0641L11.754 45.0277L13.277 43.5023C14.8834 41.8936 15.0845 41.5768 14.9027 40.9433C14.7719 40.4868 14.5159 40.2259 14.0816 40.106C13.4182 39.9229 13.1219 40.1095 11.4913 41.7366L9.95597 43.2687L9.95435 42.1403C9.95263 40.9313 9.86211 40.6209 9.41781 40.3009C9.03313 40.0237 8.6604 39.9712 8.27852 40.1402ZM45.8421 40.1426C45.1715 40.4345 45.044 40.7425 45.044 42.0709V43.2623L43.4484 41.6798L41.8527 40.0973H41.304C40.8348 40.0973 40.7073 40.1453 40.4241 40.4284C40.141 40.7115 40.093 40.8389 40.093 41.308V41.8566L41.6759 43.4517L43.2588 45.0469H42.0671C41.0076 45.0469 40.8425 45.0729 40.5788 45.2802C39.8915 45.8207 39.8738 46.6898 40.5389 47.2492L40.8629 47.5217H43.7122C46.8445 47.5217 47.0422 47.4869 47.3563 46.8797C47.4902 46.6209 47.5196 46.0518 47.5196 43.7218C47.5196 40.9691 47.5122 40.8702 47.2862 40.583C47.0797 40.3205 46.4896 39.9824 46.2583 39.9939C46.2121 39.9963 46.0248 40.0632 45.8421 40.1426ZM26.8143 45.2697C26.2672 45.7013 26.2084 46.0105 26.2084 48.4571V50.6906L25.4281 49.9285C24.9988 49.5093 24.528 49.0869 24.3816 48.9896C24.0505 48.7698 23.6021 48.7638 23.1959 48.9737C22.7457 49.2065 22.5489 49.5478 22.5489 50.0959V50.5778L24.7532 52.7889L26.9575 55H27.5H28.0425L30.2468 52.7889L32.4511 50.5778V50.0959C32.4511 49.5478 32.2543 49.2065 31.8041 48.9737C31.3979 48.7638 30.9495 48.7698 30.6184 48.9896C30.472 49.0869 30.0012 49.5093 29.5719 49.9285L28.7916 50.6906V48.4571C28.7916 46.098 28.7321 45.7392 28.2727 45.3301C28.1485 45.2195 27.839 45.1059 27.5851 45.0775C27.2176 45.0365 27.0601 45.0758 26.8143 45.2697Z" fill="white"/>
</svg>
