<svg width="30" height="30" viewBox="0 0 30 30" fill="none" xmlns="http://www.w3.org/2000/svg">
<path fill-rule="evenodd" clip-rule="evenodd" d="M19.7034 0.0397162C14.1524 0.802865 10.5467 6.07408 11.9031 11.4431C12.5301 13.9251 14.2121 16.0768 16.4782 17.2959C19.4433 18.8911 23.1204 18.7132 25.9168 16.8393C27.9691 15.464 29.3197 13.443 29.8562 10.9447C30.0479 10.0519 30.0479 8.31967 29.8562 7.42683C29.0486 3.66585 26.3344 0.94833 22.5937 0.155455C21.9392 0.016674 20.3373 -0.0474104 19.7034 0.0397162ZM22.5768 1.11637C24.2117 1.49777 25.5117 2.21061 26.6528 3.35152C27.8151 4.5136 28.544 5.86406 28.9196 7.55107C29.1149 8.42855 29.1149 9.94301 28.9196 10.8205C28.544 12.5075 27.8151 13.858 26.6528 15.02C25.4889 16.1837 24.1072 16.9278 22.4412 17.2881C21.5638 17.478 20.0396 17.4772 19.1826 17.2864C17.4953 16.911 16.1447 16.1821 14.9824 15.02C13.8203 13.8581 13.092 12.509 12.7153 10.8205C12.5256 9.9698 12.5254 8.44561 12.715 7.56239C13.4758 4.01687 16.2129 1.48076 19.8207 0.97835C20.4922 0.884832 21.8827 0.954487 22.5768 1.11637ZM10.6434 17.5667C10.4498 17.6247 8.97379 18.2165 7.36327 18.8817C5.75275 19.547 4.41714 20.0913 4.39527 20.0913C4.3734 20.0913 4.25529 19.8523 4.13285 19.5603C3.91265 19.0353 3.76951 18.86 3.5611 18.86C3.50211 18.86 2.73614 19.1522 1.85886 19.5093C0.228583 20.173 0 20.3053 0 20.585C0 20.8107 0.215213 21.0294 0.437287 21.0294C0.54806 21.0294 1.1903 20.7992 1.93217 20.4937C2.67104 20.1894 3.25382 19.9805 3.2815 20.01C3.33603 20.0682 6.56845 27.921 6.56669 27.9912C6.5661 28.0157 5.9811 28.2733 5.26673 28.5635C4.55237 28.8538 3.90632 29.1393 3.83114 29.1981C3.63053 29.3548 3.63991 29.7141 3.84891 29.8785C3.93388 29.9453 4.05398 30 4.11578 30C4.33733 30 7.41347 28.7065 7.55004 28.5559C7.71852 28.3701 7.71594 28.2595 7.53286 27.8246C7.45088 27.6299 7.3336 27.3432 7.2722 27.1875L7.16067 26.9046L8.39113 26.4002C9.06791 26.1227 9.64652 25.8958 9.67696 25.8958C9.70739 25.8958 11.2304 26.4679 13.0613 27.1672L16.3902 28.4385L16.9473 28.4627C17.4643 28.4852 17.5529 28.4713 18.1787 28.2697C21.0795 27.3353 24.4342 25.8078 28.4409 23.597C29.6221 22.9452 30.0067 22.4162 29.9513 21.5193C29.9077 20.8154 29.5132 20.3225 28.8312 20.12C28.2164 19.9375 28.1524 19.9505 25.2743 20.8444C24.1767 21.1854 22.6848 21.5973 21.7562 21.8157C20.2874 22.1612 20.1391 22.1861 20.0901 22.0959C19.9271 21.7956 19.4151 21.4323 17.8269 20.4895C14.5091 18.5203 12.9908 17.6973 12.3941 17.5449C11.9125 17.4219 11.0923 17.4321 10.6434 17.5667ZM12.9304 18.7824C14.4267 19.541 18.8911 22.1638 19.1681 22.4471C19.529 22.8161 19.5153 23.4416 19.1381 23.8187C18.9225 24.0343 18.5428 24.1657 18.2846 24.114C18.1935 24.0958 17.3737 23.7477 16.4629 23.3404C15.5521 22.9331 14.7312 22.5772 14.6386 22.5496C14.4478 22.4926 14.1709 22.6037 14.1103 22.7616C14.0506 22.9171 14.0688 23.1695 14.1472 23.2747C14.2441 23.4049 17.7005 24.9444 18.077 25.0251C18.4247 25.0997 18.8762 25.0502 19.2153 24.9004C19.7796 24.6511 20.3483 23.8797 20.3484 23.3634C20.3485 23.2444 20.3714 23.1328 20.3994 23.1155C20.4275 23.0982 21.173 22.9136 22.056 22.7053C23.0131 22.4797 24.5483 22.0528 25.8564 21.6487C27.1716 21.2424 28.1493 20.9707 28.296 20.9707C28.5867 20.9707 28.9014 21.16 29.0196 21.4058C29.0841 21.5399 29.0862 21.6183 29.0303 21.8049C28.9109 22.2033 28.5617 22.474 27.2959 23.1494C23.31 25.2762 21.1661 26.2533 18.4513 27.1801C17.608 27.468 17.333 27.5375 17.0374 27.5375C16.7002 27.5375 16.3894 27.4301 13.219 26.2183C11.3208 25.4927 9.72516 24.899 9.67308 24.899C9.62107 24.899 8.964 25.1519 8.21298 25.461C7.4619 25.7701 6.82618 26.0009 6.80008 25.974C6.68954 25.8598 4.73849 21.0178 4.78593 20.9754C4.83238 20.9339 5.85309 20.5108 9.85171 18.8758L11.0538 18.3841L11.6403 18.4049C12.2257 18.4257 12.2278 18.4262 12.9304 18.7824Z" fill="#00092E"/>
</svg>
