<svg width="30" height="27" viewBox="0 0 30 27" fill="none" xmlns="http://www.w3.org/2000/svg">
<path fill-rule="evenodd" clip-rule="evenodd" d="M11.5378 0.076457C11.093 0.198324 10.6926 0.556299 10.5133 0.992422C10.3748 1.32901 10.4024 1.99279 10.5699 2.35851L10.7113 2.66687L10.4741 2.58187C9.90085 2.37637 9.13531 2.54226 8.64872 2.97743C8.2561 3.32849 8.05472 3.78576 8.05384 4.32791C8.0532 4.73347 8.04528 4.75968 7.92346 4.75992C7.6692 4.76052 7.12052 5.01842 6.8655 5.25727C6.48724 5.6115 6.31025 6.00229 6.2776 6.55557L6.25075 7.0107L6.02017 7.04816C5.43433 7.14335 4.94222 7.52014 4.67014 8.08188C4.49878 8.43575 4.47808 8.53123 4.48693 8.92858C4.49244 9.17487 4.50563 9.42712 4.51625 9.48907C4.53096 9.57496 4.47808 9.62166 4.29435 9.68497C3.98111 9.7929 3.60749 10.121 3.41209 10.4598C3.29495 10.6628 3.24999 10.8357 3.22941 11.1619C3.19365 11.7274 3.31623 12.1067 3.66031 12.4955C3.80318 12.6569 3.92002 12.8035 3.92002 12.8211C3.92002 12.8388 3.04855 13.907 1.98344 15.1949C0.918265 16.4828 0.0311394 17.5989 0.0120274 17.675C-0.0641861 17.9781 0.234981 18.2772 0.537256 18.2001C0.633578 18.1755 1.31833 17.3918 2.62175 15.8142C3.68933 14.522 4.59017 13.4476 4.62359 13.4266C4.65701 13.4057 4.90153 13.5645 5.16693 13.7795C5.53757 14.0799 5.69369 14.1706 5.84002 14.1709C6.20438 14.1715 6.4006 13.7453 6.16246 13.4703C6.10606 13.4052 5.65792 13.0264 5.16664 12.6285C4.67542 12.2307 4.23349 11.8267 4.18466 11.7308C3.98129 11.3311 4.13629 10.762 4.50077 10.5706C4.70731 10.462 5.10538 10.4498 5.28694 10.5464C5.35735 10.5839 5.89595 11.0038 6.48379 11.4796C7.39155 12.2142 7.56666 12.3821 7.64622 12.5937C7.74834 12.8653 7.70174 13.1958 7.52856 13.4285C7.30038 13.7352 7.56397 14.22 7.91953 14.1478C8.16476 14.0979 8.23025 14.0329 8.40882 13.6621C8.5208 13.4296 8.56553 13.2351 8.57497 12.9396L8.58792 12.5353L8.828 12.4936C9.35809 12.4017 9.88332 11.988 10.1316 11.4668C10.2172 11.2872 10.2797 11.0176 10.303 10.7284L10.3395 10.2728L10.5842 10.2305C11.2176 10.1211 11.8064 9.59783 12.01 8.96336C12.0514 8.83447 12.0895 8.56697 12.0946 8.36886L12.104 8.00874L12.3441 7.96705C12.893 7.87186 13.4484 7.44116 13.7121 6.90622C13.9848 6.353 13.9105 5.53508 13.5403 5.01592C13.4451 4.88226 13.099 4.55234 12.7713 4.28276C12.234 3.84062 12.1844 3.7835 12.2662 3.70053C12.3455 3.61988 12.4097 3.61797 12.7845 3.68522C13.0197 3.72745 13.4067 3.81215 13.6445 3.87338C14.0408 3.97553 14.1128 4.01943 14.507 4.39998C15.0053 4.88089 15.3831 5.03772 15.9046 4.98013C16.07 4.96184 17.2091 4.5751 18.4698 4.10919C19.717 3.64829 20.8129 3.27114 20.905 3.27114C21.1556 3.27114 21.5772 3.51243 21.7271 3.74157C21.9738 4.1186 21.8461 4.84867 21.4923 5.08394C21.4202 5.13195 20.8999 5.34567 20.3362 5.5589C19.7725 5.77214 19.2778 5.99306 19.2369 6.04976C19.0782 6.27027 19.182 6.63134 19.4316 6.72777C19.5481 6.77274 19.7823 6.70841 20.6352 6.39732C21.2176 6.18485 21.7775 6.01164 21.8794 6.01236C22.149 6.01426 22.5257 6.20749 22.675 6.42049C22.9487 6.81092 22.9079 7.31941 22.5749 7.66994C22.3906 7.86394 22.2053 7.95513 21.348 8.27374C20.7926 8.48013 20.2935 8.69908 20.239 8.76031C20.0093 9.01816 20.1937 9.46572 20.5295 9.46572C20.6264 9.46572 21.1433 9.30228 21.6783 9.10256C22.7757 8.69277 23.0741 8.66322 23.4399 8.92786C23.6562 9.08428 23.8502 9.46548 23.8502 9.73375C23.8502 9.99154 23.6589 10.3815 23.4639 10.5209C23.3715 10.5871 22.8474 10.8068 22.2992 11.0092C21.2789 11.3861 21.0974 11.5007 21.0974 11.7682C21.0974 11.9537 21.3436 12.2056 21.5249 12.2056C21.6017 12.2056 22.0184 12.0717 22.4509 11.9079C23.2764 11.5954 23.5218 11.5559 23.7824 11.6937C24.0847 11.8535 24.2225 12.0626 24.2469 12.3987C24.2721 12.7443 24.1485 13.0211 23.8996 13.1769C22.5472 14.0237 15.978 18.0387 15.8504 18.0964C15.4198 18.2913 15.2626 18.3045 12.9777 18.337L10.6327 18.3704L10.3099 18.5243C9.96739 18.6875 9.65521 18.9658 9.5233 19.2255C9.30146 19.6623 6.44093 26.4721 6.44093 26.5635C6.44093 26.8741 6.72515 27.0754 7.01746 26.9719C7.23074 26.8963 7.06852 27.2448 8.84523 23.0462C9.67825 21.0775 10.3312 19.6127 10.4183 19.5167C10.5003 19.4264 10.6612 19.326 10.7759 19.2936C10.8951 19.26 11.8776 19.2346 13.0709 19.2345C15.7512 19.234 15.7647 19.2311 17.1845 18.3539C17.5313 18.1396 17.8252 17.9752 17.8374 17.9886C17.8497 18.002 18.9191 19.9965 20.2138 22.4207C21.5085 24.845 22.605 26.8664 22.6505 26.9128C22.7915 27.0564 23.0923 27.0172 23.2465 26.835C23.322 26.7459 23.3833 26.6275 23.3827 26.5719C23.382 26.5164 22.3026 24.453 20.9839 21.9865L18.5864 17.5019L18.8013 17.3649C19.1621 17.1349 23.9226 14.2062 24.2086 14.0383C24.8146 13.6825 25.0898 13.2393 25.1301 12.5545C25.1534 12.1588 25.1374 12.0561 25.0081 11.7691C24.9263 11.5875 24.7355 11.3183 24.584 11.1709L24.3085 10.9027L24.4259 10.7352C24.5649 10.5367 24.7322 9.99411 24.7322 9.74174C24.7322 9.42474 24.5545 8.90749 24.3447 8.61384C24.1721 8.3722 23.756 8.03322 23.5439 7.96139C23.5105 7.95007 23.5317 7.85346 23.5934 7.73576C23.7549 7.42746 23.748 6.6099 23.5808 6.24203C23.4157 5.87882 23.0955 5.52573 22.774 5.35246L22.5138 5.21224L22.6112 5.03087C22.6823 4.89829 22.7086 4.69756 22.7091 4.28371C22.7095 3.79934 22.6888 3.67658 22.5653 3.43094C22.1465 2.59789 21.1796 2.19965 20.2791 2.48937C20.071 2.55632 19.8893 2.59968 19.8755 2.58568C19.8617 2.57168 19.8865 2.47221 19.9305 2.3647C20.1265 1.88635 19.9712 1.2439 19.5636 0.846968C19.2072 0.499833 19.0655 0.47166 17.6762 0.47166H16.4205L16.0402 0.290885C15.8311 0.191414 15.4918 0.0821751 15.2862 0.0481049C14.6253 -0.0615512 14.2968 0.0722875 14.2968 0.45111C14.2968 0.75935 14.4442 0.863407 14.9471 0.910105C15.6626 0.976518 15.8529 1.1066 16.9684 2.29185C17.5075 2.86467 17.9381 3.34196 17.9254 3.35256C17.8329 3.42963 15.8748 4.10562 15.7448 4.10538C15.5098 4.10484 15.3053 3.97887 14.971 3.6284C14.8098 3.45936 14.5855 3.2728 14.4727 3.21378C14.2217 3.08262 13.4696 2.89142 12.6846 2.75925C11.6755 2.58937 11.3069 2.2775 11.3069 1.59377C11.3069 1.08552 11.6178 0.889556 12.4252 0.88896C12.8134 0.888662 12.8854 0.87127 12.9968 0.750773C13.2073 0.523063 13.1577 0.225306 12.8855 0.0822942C12.6818 -0.0247411 11.9193 -0.0280766 11.5378 0.076457ZM18.9431 1.48328C19.0244 1.54827 19.1078 1.66995 19.1285 1.7537C19.1692 1.91827 19.0228 2.31371 18.8074 2.621C18.657 2.83555 18.7119 2.87343 17.9244 2.0125L17.3323 1.36511H18.0637C18.7044 1.36511 18.8135 1.37976 18.9431 1.48328ZM10.3237 3.48663C10.4246 3.53965 11.0256 4.00585 11.6594 4.52268C12.9414 5.5679 13.0407 5.6931 12.9925 6.20254C12.945 6.70567 12.6165 7.02714 12.1058 7.07014C11.8953 7.08789 11.7276 7.06746 11.615 7.01034C11.5209 6.96269 10.9157 6.49291 10.27 5.96649C9.29085 5.16811 9.08009 4.96869 8.99965 4.76445C8.87583 4.45001 8.87953 4.25316 9.01489 3.95022C9.11538 3.72548 9.33147 3.51594 9.5481 3.43327C9.72796 3.36459 10.1461 3.39336 10.3237 3.48663ZM8.46932 5.71549C8.64215 5.78226 10.7079 7.44015 10.9647 7.71825C11.278 8.05752 11.3007 8.63487 11.0151 9.00369C10.731 9.37066 10.0848 9.46179 9.68821 9.19077C9.06156 8.76257 7.37543 7.33157 7.26544 7.13465C7.09777 6.83451 7.10276 6.39017 7.27682 6.1241C7.51882 5.75415 8.07553 5.56337 8.46932 5.71549ZM6.77832 8.03572C6.88326 8.10071 7.48066 8.57024 8.10596 9.07909C9.31172 10.0604 9.43084 10.202 9.43084 10.6541C9.43084 11.0882 9.12898 11.4807 8.69568 11.6102C8.27293 11.7365 8.09623 11.6406 6.76976 10.565C5.49025 9.52749 5.3315 9.34344 5.32833 8.89433C5.32352 8.20363 6.20584 7.68108 6.77832 8.03572ZM24.971 14.9834C24.7455 15.2745 24.7926 15.3637 25.6848 16.3349C26.1443 16.835 27.1507 17.9312 27.9212 18.7709C28.6984 19.618 29.3817 20.3129 29.456 20.3319C29.768 20.4114 30.0642 20.1229 29.9879 19.814C29.9557 19.6837 28.5926 18.1637 26.3295 15.7348C25.5676 14.9171 25.4636 14.8264 25.2878 14.8264C25.1466 14.8264 25.0588 14.8699 24.971 14.9834Z" fill="#00092E"/>
</svg>
