<svg width="150" height="48" viewBox="0 0 150 48" fill="none" xmlns="http://www.w3.org/2000/svg">
<path d="M24.5 2.5H141C145.694 2.5 149.5 6.30558 149.5 11V37C149.5 41.6944 145.694 45.5 141 45.5H24.5V2.5Z" fill="url(#paint0_linear_2245_48)" stroke="white"/>
<circle cx="24" cy="24" r="24" fill="#034F98"/>
<circle cx="24" cy="24" r="21.5" fill="#00082E" stroke="white"/>
<circle cx="24" cy="24" r="17" fill="#004889"/>
<path fill-rule="evenodd" clip-rule="evenodd" d="M27.2902 15.0161C27.0819 15.0432 26.6409 15.1731 26.345 15.2947C25.0352 15.8329 24.0575 16.9594 23.7686 18.2634C23.7174 18.4941 23.6976 19.1602 23.7388 19.2633C23.7796 19.3654 24.212 19.328 24.7245 19.1781C25.9532 18.8187 27.0087 17.7473 27.3936 16.4689C27.5159 16.0629 27.5784 15.5673 27.5475 15.25C27.5203 14.972 27.534 14.9845 27.2902 15.0161ZM20.1099 19.2674C19.1079 19.4499 18.1837 19.9711 17.3893 20.8016C16.6705 21.5532 16.2526 22.4437 16.0787 23.5938C15.854 25.0811 16.1143 26.8282 16.8074 28.4844C17.3633 29.8129 18.2714 31.1945 19.133 32.023C19.8935 32.754 20.5387 33.0441 21.2945 32.9946C21.6784 32.9695 21.8631 32.918 22.536 32.6487C23.1687 32.3954 23.5001 32.3096 24.0167 32.2652C24.7532 32.202 25.3405 32.3071 26.1638 32.6493C26.7922 32.9105 26.9944 32.9685 27.3635 32.993C28.4681 33.0665 29.4811 32.3151 30.7345 30.4924C30.9617 30.1621 31.2481 29.7176 31.371 29.5048C31.5857 29.1329 32 28.2913 32 28.2269C32 28.2099 31.8943 28.1528 31.7651 28.1001C31.2102 27.8737 30.5007 27.3061 30.131 26.7927C29.1453 25.4238 29.1132 23.6421 30.0497 22.2776C30.2697 21.957 30.7888 21.4671 31.1508 21.2384L31.4806 21.0302L31.2618 20.7939C30.5218 19.9946 29.5128 19.4337 28.5208 19.2703C27.6854 19.1327 26.9269 19.2351 25.8058 19.6369C25.0591 19.9044 24.7942 19.9623 24.3214 19.9612C23.8271 19.9599 23.5846 19.9083 22.6848 19.6125C22.3088 19.4889 21.8552 19.3563 21.6769 19.3179C21.2331 19.2224 20.4887 19.1984 20.1099 19.2674Z" fill="white"/>
<path d="M55.712 9.424H56.84C57.816 9.424 58.304 10.256 58.304 11.256C58.304 12.248 57.816 13.064 56.84 13.064H55.712V9.424ZM56.84 14C58.416 14 59.328 12.824 59.328 11.256C59.328 9.688 58.416 8.488 56.84 8.488H54.688V14H56.84ZM61.0789 11.256C61.0789 10.256 61.8549 9.432 62.8549 9.432C63.8389 9.432 64.6309 10.256 64.6309 11.256C64.6309 12.264 63.8389 13.072 62.8549 13.072C61.8549 13.072 61.0789 12.264 61.0789 11.256ZM60.0629 11.256C60.0629 12.808 61.2869 14.08 62.8549 14.08C64.4229 14.08 65.6549 12.808 65.6549 11.256C65.6549 9.696 64.4229 8.424 62.8549 8.424C61.2869 8.424 60.0629 9.696 60.0629 11.256ZM70.7299 12.328L69.8979 9.256H69.0819L68.2419 12.328L67.0659 8.488H65.9619L67.8179 14H68.6499L69.4819 10.872L70.3299 14H71.1539L73.0259 8.488H71.9139L70.7299 12.328ZM77.8227 8.488H76.7987V12.072L74.6947 8.488H73.7427V14H74.7587V10.376L76.8867 14H77.8227V8.488ZM79.1958 14H82.3478V13.088H80.2198V8.488H79.1958V14ZM83.7743 11.256C83.7743 10.256 84.5503 9.432 85.5503 9.432C86.5343 9.432 87.3263 10.256 87.3263 11.256C87.3263 12.264 86.5343 13.072 85.5503 13.072C84.5503 13.072 83.7743 12.264 83.7743 11.256ZM82.7583 11.256C82.7583 12.808 83.9823 14.08 85.5503 14.08C87.1183 14.08 88.3503 12.808 88.3503 11.256C88.3503 9.696 87.1183 8.424 85.5503 8.424C83.9823 8.424 82.7583 9.696 82.7583 11.256ZM92.7536 14H93.8336L91.7696 8.488H90.6656L88.6016 14H89.6896L90.1936 12.664H92.2496L92.7536 14ZM91.2176 9.664L91.9136 11.768H90.5376L91.2176 9.664ZM95.5479 9.424H96.6759C97.6519 9.424 98.1399 10.256 98.1399 11.256C98.1399 12.248 97.6519 13.064 96.6759 13.064H95.5479V9.424ZM96.6759 14C98.2519 14 99.1639 12.824 99.1639 11.256C99.1639 9.688 98.2519 8.488 96.6759 8.488H94.5239V14H96.6759Z" fill="white"/>
<path d="M55.72 35H58.26V21.22H55.72V35ZM63.3966 28.14C63.3966 25.64 65.3366 23.58 67.8366 23.58C70.2966 23.58 72.2766 25.64 72.2766 28.14C72.2766 30.66 70.2966 32.68 67.8366 32.68C65.3366 32.68 63.3966 30.66 63.3966 28.14ZM60.8566 28.14C60.8566 32.02 63.9166 35.2 67.8366 35.2C71.7566 35.2 74.8366 32.02 74.8366 28.14C74.8366 24.24 71.7566 21.06 67.8366 21.06C63.9166 21.06 60.8566 24.24 60.8566 28.14ZM76.6388 30.98C76.6388 33.34 78.6388 35.22 81.5788 35.22C84.0788 35.22 86.3188 33.8 86.4188 31.32C86.5188 29.7 85.7588 27.98 82.6588 27.12L80.9588 26.62C79.4788 26.26 79.3188 25.44 79.3188 25.04C79.3188 24.06 80.2388 23.42 81.3788 23.42C82.6588 23.42 83.4388 24.12 83.4388 25.22H85.9987C85.9987 22.66 84.0188 21.06 81.4188 21.06C78.8788 21.06 76.7788 22.68 76.7788 25.1C76.7788 26.3 77.2588 28.08 80.2588 28.94L81.9588 29.38C83.2788 29.74 83.9188 30.36 83.8588 31.26C83.7988 32.2 82.9588 32.92 81.5788 32.92C80.0988 32.92 79.2588 32 79.1988 30.98H76.6388ZM102.603 35H105.303L100.143 21.22H97.3827L92.2227 35H94.9427L96.2027 31.66H101.343L102.603 35ZM98.7627 24.16L100.503 29.42H97.0627L98.7627 24.16ZM112.589 23.5C113.869 23.5 114.449 24.68 114.449 25.68C114.449 26.7 113.829 27.82 112.509 27.82H109.589V23.5H112.589ZM107.029 35H109.589V30.1H112.629C115.689 30.1 117.009 27.92 117.009 25.68C117.009 23.44 115.689 21.22 112.629 21.22H107.029V35ZM124.835 23.5C126.115 23.5 126.695 24.68 126.695 25.68C126.695 26.7 126.075 27.82 124.755 27.82H121.835V23.5H124.835ZM119.275 35H121.835V30.1H124.875C127.935 30.1 129.255 27.92 129.255 25.68C129.255 23.44 127.935 21.22 124.875 21.22H119.275V35Z" fill="white"/>
<defs>
<linearGradient id="paint0_linear_2245_48" x1="31.033" y1="2" x2="146.161" y2="45.6127" gradientUnits="userSpaceOnUse">
<stop stop-color="#004C8F"/>
<stop offset="1" stop-color="#00062B"/>
</linearGradient>
</defs>
</svg>
