<svg width="53" height="53" viewBox="0 0 53 53" fill="none" xmlns="http://www.w3.org/2000/svg">
<path fill-rule="evenodd" clip-rule="evenodd" d="M18.1164 0.290235C17.3804 0.646771 16.74 1.29966 16.4029 2.0374C16.2304 2.41468 16.173 2.75557 16.1718 3.40857C16.1694 4.7074 16.4191 5.13401 18.2611 6.97829C19.7611 8.48015 19.7646 8.48471 19.6559 8.8406C19.495 9.36715 19.6308 9.71999 20.2462 10.3735L20.798 10.9598L19.235 12.5616C17.1264 14.7224 16.2477 16.0574 15.5825 18.1106C15.1481 19.4515 14.9915 20.4916 14.9992 21.985C15.0117 24.4175 15.3391 25.1897 16.3581 25.1897H16.813L21.3573 20.6312L25.9014 16.0726L26.5272 16.6791L27.153 17.2856L27.7707 17.2293L28.3883 17.1729L38.0655 26.8713C48.8225 37.652 48.0526 36.9765 49.583 36.9765C51.009 36.9765 52.2774 36.0963 52.7802 34.7581C53.0937 33.9233 53.0318 32.7505 52.6334 31.9793C52.4213 31.5688 50.0169 29.0913 42.7903 21.8364L33.228 12.2366L33.3366 11.8807C33.4973 11.3546 33.361 11.002 32.743 10.3455L32.1881 9.75595L34.085 7.83161C36.2358 5.64937 36.3952 5.38995 36.3154 4.20084C36.2523 3.26268 35.9956 2.78871 35.0155 1.80046C33.9998 0.776589 33.4397 0.490664 32.443 0.48784C31.3912 0.48469 30.9462 0.781369 28.8722 2.86812L27.1016 4.6495L26.4675 4.04169L25.8333 3.43399L25.2056 3.49114L24.578 3.54839L23.0914 2.05184C21.307 0.25558 20.9759 0.0571061 19.6842 0.00974164C18.8545 -0.0206759 18.7021 0.00659123 18.1164 0.290235ZM21.5428 3.7587L23.0402 5.24949L22.2277 6.06587L21.415 6.88236L20.0519 5.52563C19.3021 4.77954 18.6183 4.00595 18.5324 3.80661C18.2145 3.06953 18.7754 2.26792 19.6091 2.26792C20.0247 2.26792 20.1161 2.33831 21.5428 3.7587ZM33.3861 3.4869C33.7775 3.87657 34.0648 4.25657 34.0648 4.38432C34.0648 4.52609 33.4304 5.24253 32.306 6.3707L30.5472 8.13535L29.6317 7.21076L28.7163 6.28629L30.4432 4.54869C31.7478 3.23595 32.2358 2.81109 32.4388 2.81109C32.6234 2.81109 32.9198 3.02249 33.3861 3.4869ZM28.0636 8.89427L30.6565 11.5012L29.1996 12.968C28.3982 13.7749 27.6928 14.4349 27.6321 14.4349C27.5713 14.4349 26.3548 13.2618 24.9286 11.828L22.3357 9.22114L23.7927 7.75426C24.594 6.94743 25.2994 6.28738 25.3601 6.28738C25.4209 6.28738 26.6374 7.46051 28.0636 8.89427ZM20.7801 17.9387L17.2816 21.4418L17.3378 20.836C17.4709 19.4037 18.1054 17.6747 18.9968 16.3152C19.2243 15.9682 20.0898 14.9854 20.9202 14.1313L22.4301 12.5783L23.3543 13.5069L24.2786 14.4355L20.7801 17.9387ZM41.1184 23.4244C51.2303 33.5862 50.9175 33.2382 50.6104 33.9831C50.4306 34.4191 50.058 34.6409 49.5049 34.6409H49.0431L39.5004 25.0556L29.9578 15.4703L30.7382 14.6811C31.1673 14.247 31.5441 13.8918 31.5755 13.8918C31.6068 13.8918 35.9011 18.1814 41.1184 23.4244ZM9.89893 16.0585C9.27581 16.3147 9.02939 17.1257 9.39432 17.7189C9.79308 18.3672 12.0363 20.4837 12.4126 20.5668C13.175 20.7349 13.9532 19.9545 13.7859 19.1895C13.7359 18.9605 13.3515 18.4752 12.6161 17.7126C10.9969 16.0335 10.5788 15.7789 9.89893 16.0585ZM9.87893 21.8699C9.51834 22.0301 9.19612 22.5201 9.19612 22.9084C9.19612 23.4919 9.49293 23.762 10.9277 24.4844C11.8239 24.9356 12.4603 25.1897 12.6941 25.1897C13.1574 25.1897 13.5778 24.8606 13.7381 24.3725C13.8428 24.054 13.8311 23.9285 13.6649 23.5867C13.4918 23.2308 13.2981 23.0951 12.1155 22.5014C10.5601 21.7206 10.3493 21.661 9.87893 21.8699ZM19.0702 25.3649C18.7548 25.5212 18.3867 26.0704 18.3867 26.3847C18.3867 26.7098 18.757 27.2508 19.0872 27.4083C19.6082 27.6568 23.004 27.6568 23.525 27.4083C23.8553 27.2508 24.2255 26.7098 24.2255 26.3847C24.2255 26.0595 23.8553 25.5185 23.525 25.361C23.0059 25.1135 19.5715 25.1166 19.0702 25.3649ZM10.4047 27.7434C8.78622 28.038 6.87209 28.8306 5.46982 29.7868C4.62417 30.3634 3.15086 31.7912 2.48232 32.682C1.81703 33.5685 0.984578 35.1858 0.608196 36.3229C0.122715 37.7897 -0.0255243 38.9442 0.0361068 40.7787C0.107686 42.9125 0.398325 44.0619 1.35047 45.9772L2.04463 47.3737L1.02513 49.436C-0.141542 51.7959 -0.216473 52.1419 0.321557 52.6825L0.637606 53H26.4961H52.3546L52.6772 52.6757L53 52.3516L52.9664 49.5525L52.9326 46.7535L51.9856 44.8788C50.9507 42.8303 50.5261 42.2661 49.6957 41.8363C49.2125 41.5862 48.977 41.5453 47.6886 41.4881C46.1735 41.4208 45.8687 41.3322 45.6395 40.8924C45.5757 40.7701 45.1859 39.6517 44.7731 38.4071C43.5444 34.702 43.5501 34.7077 39.7414 33.4353C37.9598 32.8401 37.5793 32.7487 36.8761 32.7466C35.3239 32.742 34.4243 33.4187 33.4525 35.3214C33.1241 35.9646 32.7504 36.5512 32.6221 36.6251C32.4835 36.7048 31.7745 36.7825 30.8752 36.8164C29.4177 36.8714 29.3367 36.887 28.695 37.2338C28.3285 37.432 27.9149 37.7151 27.776 37.8628C27.637 38.0105 27.1827 38.823 26.7664 39.6685C26.1078 41.006 25.9639 41.2239 25.6581 41.3455L25.3067 41.4854V40.2501C25.3067 36.7547 23.9293 33.5276 21.4028 31.1037C19.5481 29.3243 17.2953 28.1701 14.8363 27.7392C13.7259 27.5447 11.4847 27.5467 10.4047 27.7434ZM15.1588 30.1712C18.3933 31.0251 21.0669 33.3643 22.2712 36.3939C22.8405 37.826 22.9717 38.5556 22.9717 40.2898C22.9717 42.0241 22.8405 42.7536 22.2712 44.1858C21.7636 45.4629 21.035 46.548 19.96 47.628C18.5211 49.0736 16.941 49.9723 14.966 50.4677C13.9376 50.7257 11.3746 50.7257 10.3462 50.4677C6.49765 49.5021 3.62845 46.6723 2.57618 42.8043C2.27321 41.6904 2.24564 39.0876 2.52493 37.9691C3.55849 33.8311 6.7259 30.8063 10.855 30.0143C11.9272 29.8087 14.083 29.8872 15.1588 30.1712ZM12.1502 32.3175C11.6926 32.5442 11.4667 33.0572 11.4667 33.8697V34.5322H9.51217H7.5576L7.24155 34.8498C7.01157 35.0808 6.9255 35.2718 6.9255 35.5508C6.9255 36.4381 7.38849 36.8135 8.48293 36.8135H9.19612V40.2898V43.7661H8.48293C7.38849 43.7661 6.9255 44.1415 6.9255 45.0289C6.9255 45.3078 7.01157 45.4988 7.24155 45.7299L7.5576 46.0474H9.51217H11.4667V46.71C11.4667 47.5359 11.6938 48.0403 12.1672 48.2661C12.6139 48.479 12.6983 48.479 13.1451 48.2661C13.6157 48.0416 13.8455 47.5354 13.8455 46.7226V46.0727L14.8997 46.0262C16.1142 45.9727 16.7529 45.713 17.4292 44.9976C18.1316 44.2547 18.3287 43.7359 18.3308 42.6255C18.3327 41.6529 18.1816 41.1271 17.7142 40.4799C17.6033 40.3262 17.6033 40.2534 17.7142 40.0997C18.1817 39.4524 18.3327 38.9269 18.3306 37.9542C18.3288 37.1073 18.2899 36.9023 18.0392 36.4216C17.6533 35.6815 16.8224 34.9449 16.114 34.715C15.7811 34.6071 15.2018 34.5322 14.6981 34.5322H13.8455V33.8697C13.8455 33.0437 13.6184 32.5393 13.1451 32.3136C12.7016 32.1022 12.5838 32.1027 12.1502 32.3175ZM39.2166 35.7349C41.0122 36.331 41.5671 36.5591 41.6937 36.7532C41.7835 36.8909 42.1913 38.0089 42.6001 39.2378C43.6388 42.3606 43.8839 42.7641 45.1361 43.4122C45.6273 43.6665 45.8506 43.7047 47.1583 43.7593C48.2081 43.8029 48.6824 43.8653 48.8169 43.9775C48.9204 44.0639 49.2203 44.5649 49.4832 45.091L49.9614 46.0474H46.2806C42.3322 46.0474 42.0668 46.0797 41.7018 46.6033C41.4756 46.9277 41.4756 47.5571 41.7018 47.8815C42.0711 48.4112 42.3042 48.4374 46.6579 48.4374H50.7161V49.578V50.7187H39.5792C33.4539 50.7187 28.4424 50.6933 28.4424 50.6622C28.4424 50.6311 28.6563 50.1777 28.9179 49.6545C29.2108 49.0684 29.4909 48.6549 29.6477 48.5771C29.7875 48.5078 30.5652 48.4322 31.3757 48.409C32.7 48.3714 32.9081 48.3382 33.4307 48.0813C34.206 47.7002 34.8276 47.0609 35.2988 46.1599C35.7808 45.2384 35.8037 44.769 35.3894 44.3072C34.7361 43.5791 33.8715 43.8399 33.3232 44.9302C32.8022 45.9664 32.7656 45.9839 30.9852 46.0533C29.5247 46.1102 29.4033 46.1323 28.7348 46.4628C28.3462 46.6551 27.8758 46.9869 27.6893 47.2004C27.5027 47.4137 27.0007 48.2927 26.5735 49.1535L25.7968 50.7187L22.8757 50.7152L19.9545 50.7118L20.2789 50.4752C20.9498 49.9857 22.225 48.6785 22.8463 47.8429C23.5525 46.8932 24.2288 45.6219 24.6104 44.5265L24.8565 43.8204L25.4975 43.7473C26.8649 43.5915 27.877 42.8036 28.5141 41.3991C29.592 39.0224 29.5013 39.0948 31.4011 39.0948C33.5923 39.0948 34.38 38.5905 35.4725 36.4876C35.954 35.561 36.1362 35.3113 36.4436 35.1571C36.6517 35.0526 36.8402 34.967 36.8623 34.967C36.8844 34.9669 37.9438 35.3124 39.2166 35.7349ZM15.7276 37.1297C16.2831 37.6545 16.1607 38.6738 15.5062 38.9734C15.3431 39.048 14.514 39.0948 13.3538 39.0948H11.4667V37.9475V36.8001L13.4586 36.834C15.3924 36.8669 15.4586 36.8755 15.7276 37.1297ZM15.5062 41.6063C16.1607 41.9059 16.2831 42.9252 15.7276 43.45C15.4586 43.7042 15.3924 43.7128 13.4586 43.7457L11.4667 43.7796V42.6322V41.4848H13.3538C14.514 41.4848 15.3431 41.5316 15.5062 41.6063ZM5.03332 50.4726L5.35769 50.7118L4.19535 50.7152C3.556 50.7172 3.033 50.6928 3.033 50.6612C3.033 50.6297 3.18178 50.3078 3.36354 49.9461L3.69397 49.2882L4.20151 49.7609C4.48058 50.0208 4.85491 50.3411 5.03332 50.4726Z" fill="#001039"/>
</svg>
