<svg width="30" height="30" viewBox="0 0 30 30" fill="none" xmlns="http://www.w3.org/2000/svg">
<path fill-rule="evenodd" clip-rule="evenodd" d="M4.4501 0.0540566C3.92082 0.121989 3.26988 0.271275 2.75068 0.443831C1.7394 0.779858 0.337559 1.66139 0.112356 2.10292C-0.0991338 2.51749 -0.00636885 2.9946 0.342715 3.28842C0.581044 3.489 0.782279 3.53542 1.77099 3.618C4.30453 3.82954 7.14497 4.60399 9.61147 5.75561C10.0194 5.9461 10.0612 5.98215 10.1263 6.19954C10.1653 6.32972 10.2898 6.52613 10.403 6.63603L10.6087 6.8359L6.66503 14.7268L2.72138 22.6176L2.72225 23.1877C2.72302 23.6902 2.74148 23.7924 2.87813 24.0508C3.2738 24.7989 4.10623 25.2623 4.88028 25.1654C5.32401 25.1099 5.86612 24.8277 6.1528 24.5029C6.33675 24.2945 7.35376 22.3121 10.2938 16.4312C12.4372 12.1436 14.196 8.6298 14.2023 8.62259C14.2086 8.61544 14.3141 8.63725 14.4368 8.67112C14.6108 8.71919 14.7212 8.71268 14.9387 8.64152L15.2177 8.55026L15.8844 8.90827C17.2374 9.63483 18.8813 10.7729 20.0672 11.804C20.6508 12.3115 21.6773 13.3287 22.4413 14.1568C22.9768 14.7373 23.1383 14.8187 23.5867 14.7346C23.8545 14.6843 24.2306 14.3446 24.3207 14.0715C24.4193 13.7726 24.3502 12.4053 24.204 11.7616C23.8497 10.2027 22.9543 8.67634 21.5343 7.21108C20.4557 6.09802 19.0646 5.01158 17.6812 4.20184C17.4669 4.07641 17.4085 4.00608 17.3764 3.83464C17.3523 3.70616 17.2545 3.54034 17.1282 3.41409L16.9198 3.2056L17.0835 2.84349C17.3145 2.33239 17.3136 1.83829 17.0809 1.41141C16.875 1.03342 16.7163 0.909568 15.9371 0.518445C15.2077 0.152292 14.8144 0.0861178 14.3721 0.25504C14.0092 0.393659 13.6475 0.734668 13.4769 1.09895L13.3391 1.3933L13.0034 1.35819C12.7624 1.33299 12.6175 1.34811 12.4902 1.41164C12.3197 1.49669 12.2842 1.48878 11.5898 1.21013C10.183 0.645635 8.62961 0.24402 7.20468 0.0763881C6.42365 -0.0154581 5.07671 -0.0264187 4.4501 0.0540566ZM7.49733 1.13353C8.30796 1.25321 9.61604 1.57851 10.4717 1.87322C11.1748 2.11547 11.7166 2.33204 11.7166 2.37096C11.7166 2.38292 11.4216 2.98346 11.0611 3.70545L10.4057 5.01814L9.96237 4.81429C8.0221 3.9222 5.98327 3.27518 3.92269 2.89765C3.06823 2.74116 1.71087 2.57089 1.28566 2.56696L1.02196 2.5645L1.22706 2.3862C1.96636 1.74369 3.33141 1.21183 4.6552 1.05059C5.26605 0.976211 6.71853 1.01859 7.49733 1.13353ZM15.5121 1.41973C16.2709 1.80124 16.3745 1.96419 16.166 2.44891C16.0959 2.6118 16.0151 2.74508 15.9865 2.74508C15.9384 2.74508 14.2959 1.93922 14.2419 1.88916C14.1906 1.84163 14.4418 1.38222 14.5774 1.27549C14.788 1.10985 14.9435 1.13388 15.5121 1.41973ZM14.647 3.21416C15.6137 3.69783 16.4046 4.11973 16.4046 4.15173C16.4046 4.2478 14.6805 7.66855 14.632 7.66855C14.6074 7.66855 13.7964 7.27286 12.8298 6.78924L11.0723 5.91L11.9653 4.12237C12.4565 3.1392 12.8654 2.33479 12.8739 2.33479C12.8824 2.33479 13.6803 2.73049 14.647 3.21416ZM29.3554 5.01199C28.5183 5.32445 27.6021 6.1094 27.2745 6.79452C27.1886 6.97423 27.1375 7.00459 26.7702 7.09397C25.9907 7.2837 25.4605 7.61129 25.1585 8.08986C24.9639 8.39822 24.9814 8.55237 25.2802 9.15966C25.8413 10.3003 26.0432 11.1854 26.0432 12.5041C26.0432 13.529 25.9692 14.0024 25.6557 14.9811L25.4809 15.5266L25.6314 15.8553C25.8206 16.2686 25.9566 16.7875 25.9566 17.0961C25.9566 17.8067 25.607 18.4544 24.9833 18.8996C24.6539 19.1347 24.5821 19.2221 24.4078 19.5993C24.1701 20.1139 23.7835 20.5165 23.3195 20.7327C22.6555 21.042 21.6728 20.8767 20.6532 20.2841C20.2256 20.0356 20.1533 20.0125 19.8301 20.0208C18.7701 20.048 17.2287 20.6075 16.2709 21.3128C15.5022 21.8788 14.8351 22.6537 14.4388 23.4409L14.2374 23.8408L13.6654 23.806C12.9947 23.7651 12.6176 23.8318 12.0863 24.0854C11.643 24.297 11.028 24.8519 10.8365 25.213L10.7 25.4704L10.1375 25.5046C7.51269 25.6646 5.71083 26.9733 5.06933 29.1857C4.96121 29.5586 5.00217 29.7527 5.22122 29.9062C5.343 29.9914 6.44006 30 17.2693 30C27.2556 30 29.2139 29.9869 29.3719 29.9193C29.6 29.8217 29.8529 29.5613 29.9376 29.3368C29.981 29.2222 30 25.5311 30 17.2512V5.33061L29.8681 5.18296C29.7313 5.02987 29.5075 4.95519 29.3554 5.01199ZM18.8175 6.17498C21.6867 8.29483 23.235 10.6429 23.3582 13.0609L23.3925 13.735L23.0801 13.3833C22.1489 12.3348 20.992 11.239 19.8621 10.3349C19.1037 9.72803 17.4135 8.60595 16.5126 8.1112L15.7712 7.70396L16.4397 6.36758L17.1082 5.03121L17.6208 5.35042C17.9027 5.52591 18.4412 5.89698 18.8175 6.17498ZM29.0038 17.662V29.0036H17.606C11.3371 29.0036 6.20812 28.9875 6.20812 28.9678C6.20812 28.9481 6.29262 28.7701 6.39587 28.5722C6.51214 28.3493 6.76547 28.0304 7.06152 27.7344C7.87642 26.9195 8.83442 26.5588 10.3395 26.5003C10.7907 26.4827 11.2047 26.4451 11.2595 26.4167C11.3143 26.3883 11.4567 26.1793 11.576 25.9523C12.0803 24.9924 13.0736 24.579 14.1153 24.8955C14.7096 25.0761 14.7689 25.0383 15.174 24.2196C15.5398 23.4807 15.862 23.0277 16.3663 22.5434C17.0663 21.8712 17.891 21.4172 18.8581 21.1719C19.6514 20.9706 19.7926 20.9835 20.4585 21.3182C21.2579 21.7201 21.8554 21.8756 22.587 21.8724C23.0504 21.8704 23.2466 21.8419 23.5246 21.7363C24.2492 21.4611 24.9466 20.8201 25.279 20.1238C25.3698 19.9334 25.5156 19.7588 25.695 19.6255C26.0669 19.3493 26.4675 18.8519 26.6633 18.4231C27.0114 17.6607 27.0321 16.8613 26.7273 15.9499L26.5596 15.4486L26.6681 15.0999C26.9489 14.1978 27.0333 13.5975 27.0333 12.5041C27.0333 11.631 27.0105 11.343 26.9014 10.8336C26.7455 10.1067 26.5504 9.50448 26.2841 8.92796L26.0906 8.50912L26.281 8.37865C26.5496 8.1946 27.0343 8.02023 27.2776 8.02023C27.6918 8.02023 27.8574 7.89579 28.0916 7.4089C28.2312 7.11865 28.4192 6.84909 28.6272 6.64101C28.8035 6.46471 28.9604 6.32046 28.9758 6.32046C28.9912 6.32046 29.0038 11.4242 29.0038 17.662ZM12.4206 7.69821L13.2988 8.13822L9.3579 16.0066C5.51446 23.6804 5.41121 23.8782 5.18261 24.0059C4.53583 24.3671 3.69579 23.8856 3.6853 23.1478C3.68296 22.9831 4.53554 21.2283 7.59649 15.0977C9.7493 10.786 11.5178 7.25826 11.5265 7.25826C11.5352 7.25826 11.9374 7.45626 12.4206 7.69821ZM18.2654 15.0552C17.6198 15.2176 16.9047 15.764 16.6512 16.2885C16.3648 16.8809 16.5422 17.9094 17.0231 18.4443C17.3874 18.8497 17.7901 19.0025 18.3971 18.9656C19.2569 18.9132 19.8841 18.6143 20.2508 18.082C20.6011 17.5737 20.5738 17.0289 20.1526 16.1227C19.8567 15.486 19.7257 15.3107 19.434 15.1619C19.1588 15.0214 18.6018 14.9706 18.2654 15.0552ZM19.0015 16.0968C19.1323 16.2413 19.4333 16.9172 19.4816 17.1748C19.5363 17.4663 19.4482 17.5972 19.0746 17.78C18.6563 17.9847 18.1102 18.0403 17.8959 17.8999C17.5501 17.6732 17.4 16.9081 17.6363 16.5762C17.8343 16.2982 18.4068 16 18.7542 15.9941C18.8379 15.9927 18.9491 16.0389 19.0015 16.0968ZM26.7029 21.1055C26.6499 21.1458 26.5791 21.2526 26.5456 21.3428C26.4564 21.5831 26.5812 21.8279 26.978 22.1906C27.3812 22.5591 27.5731 22.5895 27.8363 22.3262C28.1061 22.0564 28.0687 21.9048 27.6171 21.4369C27.2745 21.0819 27.2004 21.0323 27.0129 21.0323C26.8955 21.0323 26.756 21.0653 26.7029 21.1055ZM20.6506 23.169C20.5231 23.2964 20.5067 23.3635 20.5067 23.7577C20.5067 24.152 20.5231 24.2191 20.6506 24.3465C20.921 24.6171 21.3853 24.4822 21.4798 24.1057C21.5001 24.0248 21.505 23.7974 21.4908 23.6004C21.4703 23.3168 21.4369 23.2195 21.3309 23.1336C21.1376 22.977 20.8262 22.9932 20.6506 23.169ZM23.8882 23.9228C23.5232 24.0367 23.3085 24.3003 23.1319 24.8515C22.86 25.7005 22.8397 25.8143 22.9123 26.0841C23.022 26.4916 23.2636 26.6748 24.0087 26.9157C24.7343 27.1504 24.9075 27.1686 25.2099 27.0422C25.5356 26.9061 25.7022 26.6503 25.9262 25.9428C26.1665 25.1836 26.1737 25.0817 26.0101 24.7438C25.8509 24.4148 25.6916 24.3101 25.0189 24.0925C24.3011 23.8603 24.1576 23.8387 23.8882 23.9228ZM17.3131 24.9302C16.5617 25.1678 16.4219 25.256 16.2435 25.6052C16.0677 25.9492 16.0757 26.0813 16.3174 26.8289C16.5508 27.551 16.6754 27.7416 17.0153 27.896C17.3436 28.0451 17.4432 28.0371 18.2025 27.8C18.9526 27.5658 19.2241 27.363 19.334 26.9548C19.4057 26.6884 19.3909 26.6016 19.1446 25.8385C18.935 25.1891 18.8614 25.0609 18.608 24.9043C18.2793 24.7012 18.0213 24.7063 17.3131 24.9302ZM24.6435 25.0186C24.8339 25.0834 25.0212 25.148 25.0598 25.1621C25.1105 25.1806 25.0877 25.3154 24.9783 25.645C24.8948 25.8965 24.8217 26.1086 24.8158 26.1164C24.7844 26.1579 23.9055 25.8179 23.9055 25.7641C23.9055 25.6044 24.1702 24.9007 24.2302 24.9007C24.2672 24.9007 24.4531 24.9537 24.6435 25.0186ZM18.2211 26.2191C18.2969 26.4606 18.3433 26.6738 18.3243 26.6928C18.3052 26.7118 18.0933 26.788 17.8534 26.8621L17.4171 26.9967L17.2824 26.5671C17.2083 26.3308 17.1499 26.117 17.1527 26.0921C17.1582 26.0427 17.8418 25.7919 17.9912 25.7845C18.0559 25.7812 18.1245 25.9106 18.2211 26.2191ZM12.7421 26.5904C12.6454 26.6508 12.4411 26.8349 12.2879 26.9995C11.9445 27.3688 11.92 27.575 12.1877 27.8427C12.4486 28.1036 12.647 28.0456 13.1083 27.574C13.4139 27.2615 13.4746 27.1661 13.4746 26.9981C13.4746 26.6213 13.0612 26.3912 12.7421 26.5904Z" fill="#00092E"/>
</svg>
