<svg width="30" height="30" viewBox="0 0 30 30" fill="none" xmlns="http://www.w3.org/2000/svg">
<path fill-rule="evenodd" clip-rule="evenodd" d="M14.3988 0.0547525C13.6887 0.193915 12.9035 0.727308 12.5117 1.33678C12.1168 1.95086 12.0482 2.28 12.0482 3.56105C12.0482 4.93442 12.1391 5.32768 12.6013 5.9543C13.9167 7.73756 16.6638 7.49335 17.6341 5.5068C17.9522 4.85581 18.0693 3.55579 17.9035 2.51824C17.6385 0.859585 16.0367 -0.266323 14.3988 0.0547525ZM15.6506 0.895512C16.2178 1.07034 16.7058 1.50758 16.9692 2.07703C17.1545 2.4775 17.1583 2.50804 17.1583 3.59165V4.69755L16.9461 5.12764C16.5497 5.93137 15.8458 6.3753 14.968 6.3753C14.5377 6.3753 14.4107 6.34658 14.0433 6.16603C13.5265 5.91214 13.1466 5.50342 12.9568 4.99718C12.8321 4.66467 12.8215 4.52304 12.8409 3.46087C12.8603 2.39454 12.8752 2.26655 13.0089 2.01655C13.3219 1.43144 13.8327 1.0196 14.4522 0.852893C14.8832 0.736924 15.1692 0.747124 15.6506 0.895512ZM6.90855 1.67962C6.13735 1.83054 5.41778 2.40467 5.06294 3.15227L4.85508 3.59022V4.82463V6.05903L5.06294 6.49698C5.44193 7.29539 6.14979 7.83001 7.03373 7.98542C8.37251 8.2208 9.73153 7.27687 10.0222 5.90967C10.0624 5.72028 10.0954 5.23204 10.0954 4.82463C10.0954 3.64135 9.91093 3.06196 9.34043 2.45327C8.72553 1.79715 7.80493 1.50427 6.90855 1.67962ZM21.8847 1.71152C20.8869 1.97926 20.1429 2.75245 19.933 3.73958C19.8391 4.18124 19.8385 5.46372 19.932 5.90967C20.0903 6.66506 20.6478 7.38953 21.34 7.73958C22.6514 8.40284 24.2537 7.84229 24.8922 6.49698L25.1001 6.05903V4.82463V3.59022L24.8922 3.15227C24.5257 2.38005 23.818 1.82976 22.9919 1.67455C22.5366 1.58899 22.3132 1.59646 21.8847 1.71152ZM8.26477 2.61173C8.62202 2.7924 9.0031 3.18761 9.15985 3.54006C9.32305 3.90681 9.36425 5.43163 9.22404 5.91298C9.0943 6.35841 8.6601 6.86087 8.22454 7.06968C7.74166 7.30117 7.10814 7.28655 6.61009 7.03239C6.1839 6.81494 5.801 6.37647 5.67725 5.96405C5.58039 5.64154 5.58176 3.96613 5.67914 3.68111C6.0427 2.6164 7.27023 2.10874 8.26477 2.61173ZM23.3732 2.63356C23.7706 2.83366 24.1572 3.28311 24.2779 3.6852C24.3184 3.81988 24.3515 4.33268 24.3515 4.82463C24.3515 5.31657 24.3184 5.82937 24.2779 5.96405C24.1542 6.37647 23.7713 6.81494 23.3451 7.03239C22.847 7.28655 22.2135 7.30117 21.7306 7.06968C21.311 6.86854 20.8632 6.35971 20.7393 5.94345C20.5996 5.47405 20.6057 4.13641 20.7496 3.6919C20.9346 3.12011 21.4941 2.60601 22.1057 2.44573C22.4353 2.35932 22.9925 2.4419 23.3732 2.63356ZM12.1133 7.53876C11.6103 7.71054 11.1932 7.95059 10.8634 8.25816L10.6226 8.48282L10.2217 8.32124C10.0013 8.23237 9.66305 8.14342 9.4701 8.12354C9.12346 8.08781 9.11539 8.09099 8.79245 8.39251C8.35161 8.80409 8.01669 8.94709 7.49149 8.94806C6.97039 8.94903 6.53158 8.75959 6.16007 8.37322C5.93848 8.14271 5.86467 8.10555 5.62882 8.10555C5.28811 8.10555 4.6568 8.29772 4.28692 8.51407C3.93397 8.72047 3.38208 9.29902 3.20202 9.65135C2.91879 10.2054 2.86958 10.5785 2.87062 12.1635C2.8712 12.9868 2.89314 13.6925 2.91944 13.7318C3.05907 13.9405 3.2595 13.9527 6.5433 13.9527H9.83497V14.4679C9.83497 14.8495 9.86146 15.0094 9.93723 15.0851C10.0285 15.1761 10.5775 15.1871 15.0017 15.1871C18.7745 15.1871 19.9827 15.1684 20.0421 15.1092C20.0903 15.061 20.1202 14.8247 20.1202 14.492V13.9527H23.4119C26.6957 13.9527 26.8961 13.9405 27.0357 13.7318C27.062 13.6925 27.084 12.9868 27.0846 12.1635C27.0859 10.1768 26.9803 9.77771 26.2461 8.99432C25.893 8.61763 25.5265 8.39329 24.9943 8.22795C24.3734 8.03505 24.2042 8.05903 23.8707 8.38712C23.4341 8.81676 23.1789 8.91765 22.5288 8.91765C22.0468 8.91765 21.9377 8.89544 21.6825 8.74503C21.5214 8.65011 21.2934 8.46346 21.1759 8.33027C20.9639 8.09008 20.9588 8.08839 20.5563 8.12062C20.3331 8.13848 19.975 8.22385 19.7605 8.31039L19.3704 8.46762L18.9868 8.15914C18.5591 7.81533 18.1652 7.61074 17.6791 7.47996C17.0957 7.32306 16.9574 7.35321 16.549 7.72626C16.0833 8.15174 15.7166 8.31403 15.1403 8.34989C14.5189 8.38855 14.0601 8.21333 13.5508 7.74269C13.1973 7.41616 13.1473 7.39102 12.8532 7.39258C12.679 7.39349 12.3461 7.4593 12.1133 7.53876ZM13.0613 8.3712C13.6432 8.98197 14.7766 9.28538 15.6909 9.07514C16.0931 8.98262 16.5802 8.72898 16.9486 8.42025L17.2597 8.1596L17.6245 8.27414C18.3624 8.50575 19.0278 9.17285 19.2474 9.90128C19.318 10.1355 19.3391 10.6871 19.3391 12.3064V14.4075H14.9751H10.6112L10.6299 12.2148L10.6487 10.0221L10.8309 9.63231C11.1283 8.9962 11.656 8.52732 12.3701 8.26472C12.7261 8.13387 12.854 8.15356 13.0613 8.3712ZM5.81584 9.12003C5.95906 9.24919 6.24092 9.43188 6.44214 9.52609C6.76462 9.67701 6.88902 9.69728 7.49149 9.69728C8.09396 9.69728 8.21836 9.67701 8.54085 9.52609C8.74206 9.43188 9.02354 9.24951 9.16629 9.12081L9.4259 8.88673L9.75783 8.98509C9.94042 9.03921 10.1046 9.10736 10.1227 9.13666C10.1408 9.1659 10.0914 9.34788 10.0129 9.54103C9.88314 9.86016 9.86706 10.0403 9.83627 11.5164L9.80242 13.1406L6.72186 13.1575L3.64136 13.1744L3.66232 11.8257C3.68302 10.4998 3.68647 10.4706 3.86562 10.1064C4.08961 9.65115 4.57992 9.19734 5.03748 9.0218C5.49257 8.84716 5.51653 8.85015 5.81584 9.12003ZM20.9813 9.19663C21.5291 9.61048 21.9828 9.75016 22.677 9.71878C23.2857 9.6913 23.7689 9.50562 24.2447 9.11652C24.4857 8.91947 24.5509 8.89544 24.7164 8.9428C25.2996 9.1097 25.8674 9.60347 26.1312 10.1731C26.2584 10.4477 26.2738 10.6064 26.2929 11.8257L26.3138 13.1744L23.2333 13.1575L20.1528 13.1406L20.1188 11.4839C20.0876 9.95891 20.0733 9.79986 19.9395 9.48295L19.7941 9.13868L20.006 9.05285C20.5357 8.83826 20.5 8.833 20.9813 9.19663ZM20.9665 16.8657C20.7696 16.932 20.1183 17.2539 19.5193 17.581L18.4301 18.1757L16.9805 18.1746C15.2627 18.1732 14.9653 18.1233 13.9206 17.6608C12.7386 17.1374 12.3261 17.0467 11.1369 17.0487C9.96972 17.0506 9.4492 17.1593 8.54872 17.589C7.86938 17.913 7.53966 18.1393 6.80798 18.7838C6.48575 19.0676 6.04889 19.3819 5.83713 19.4822C5.46348 19.6591 5.34331 19.6705 5.34331 19.5291C5.34331 19.3581 4.87064 17.9731 4.78218 17.8848C4.69716 17.8 4.35905 17.7859 2.41084 17.7859H0.138582L0.0370316 17.9406C-0.0569678 18.0838 -0.0115955 18.5276 0.648027 23.9222C1.2324 28.7012 1.38095 29.7718 1.47423 29.8746C1.58366 29.9953 1.71066 30 4.88763 30C8.00172 30 8.19343 29.9933 8.29511 29.8812C8.35435 29.8158 8.40284 29.7005 8.40284 29.6249C8.40284 29.5492 8.22708 28.9165 8.01226 28.2187C7.79745 27.5209 7.62169 26.9081 7.62169 26.857C7.62169 26.7646 10.0385 25.1951 10.3807 25.0653C10.7103 24.9402 11.1376 24.9947 14.0249 25.5308C16.7438 26.0356 16.9451 26.0641 17.7767 26.0606C18.7475 26.0565 19.243 25.9695 20.1224 25.6486C20.5983 25.475 21.1135 25.1457 23.8958 23.2364C25.6681 22.0202 27.7414 20.5999 28.5032 20.0801C29.265 19.5602 29.9193 19.0772 29.9571 19.0066C30.0612 18.8126 29.9818 18.6151 29.6533 18.2505C29.4623 18.0384 29.1999 17.8434 28.9218 17.7067C28.5185 17.5084 28.4422 17.4935 27.8308 17.4935C27.2733 17.4935 27.1228 17.5172 26.8398 17.6493L26.5062 17.805L26.2727 17.6005C26.1442 17.4879 25.8865 17.3162 25.6998 17.2188C25.409 17.0672 25.2813 17.0416 24.8072 17.0403C24.3295 17.0389 24.2079 17.0628 23.9178 17.215L23.5819 17.3913L23.4168 17.2617C23.326 17.1904 23.0843 17.0556 22.8797 16.9621C22.3766 16.7323 21.4944 16.6878 20.9665 16.8657ZM22.587 17.6839L22.8079 17.7989L22.4568 17.9909C22.2636 18.0966 21.877 18.3048 21.5976 18.4536L21.0895 18.7243L20.7839 18.5556C20.6158 18.4627 20.365 18.3505 20.2266 18.3062L19.975 18.2257L20.3243 18.0294C21.0835 17.6029 21.3516 17.5193 21.8778 17.5451C22.1758 17.5597 22.4522 17.6138 22.587 17.6839ZM12.02 17.8542C12.5527 17.9484 12.9498 18.081 13.6973 18.4144C14.8031 18.9076 14.7947 18.9064 17.4838 18.9493C19.771 18.9859 19.9077 18.9949 20.1968 19.1282C20.7628 19.3893 21.2623 19.9584 21.4263 20.529L21.4781 20.7095L21.1409 20.7083C20.9555 20.7077 20.2179 20.6783 19.5018 20.6431C18.2021 20.5791 16.4505 20.6478 16.1129 20.7759C15.827 20.8844 15.8242 21.3892 16.1091 21.4605C16.1933 21.4816 16.7128 21.4676 17.2636 21.4295C18.0255 21.3766 18.7087 21.3813 20.1202 21.4488C22.187 21.5476 22.242 21.5402 22.2804 21.1586C22.3002 20.9626 22.3873 20.9089 24.7746 19.6179C27.2368 18.2865 27.2504 18.2802 27.7092 18.254C28.0799 18.2327 28.2351 18.2555 28.502 18.3701C28.6845 18.4484 28.8818 18.5654 28.9405 18.6302C29.0679 18.7707 29.4934 18.4579 24.8723 21.6209C23.0284 22.8831 21.2353 24.1112 20.8875 24.3501C19.8827 25.0404 18.563 25.3955 17.3708 25.2963C17.0924 25.2731 15.6015 25.021 14.0578 24.736C12.4329 24.436 11.0766 24.2178 10.8367 24.2178C10.2597 24.2178 9.98287 24.3416 8.60907 25.2141C7.95277 25.6309 7.39521 25.9719 7.37015 25.9719C7.32654 25.9719 5.6669 20.6084 5.67055 20.4794C5.67152 20.4452 5.89858 20.3096 6.17505 20.1782C6.52227 20.0132 6.88499 19.7579 7.34769 19.353C8.35285 18.4731 9.0141 18.1185 10.0709 17.8923C10.6075 17.7774 11.4885 17.7602 12.02 17.8542ZM25.3768 17.946C25.5647 18.0333 25.7185 18.1322 25.7185 18.1658C25.7185 18.2557 22.1925 20.1412 22.1394 20.0797C22.1146 20.0509 22.0025 19.8612 21.8904 19.6583L21.6866 19.2893L22.7749 18.7059C23.3735 18.385 24.0068 18.0468 24.1822 17.9542C24.5851 17.7415 24.9316 17.7391 25.3768 17.946ZM5.87436 23.8926C6.76378 26.8046 7.49149 29.1947 7.49149 29.2038C7.49149 29.2129 6.27712 29.2204 4.79292 29.2204H2.09441L2.05854 29.0092C2.02606 28.8176 0.786553 18.6698 0.786553 18.5952C0.786553 18.5777 1.56745 18.5712 2.52189 18.5807L4.25724 18.598L5.87436 23.8926ZM4.13902 26.456C3.34322 26.747 3.0788 27.7709 3.63928 28.3908C3.7709 28.5364 3.9729 28.6949 4.08812 28.7431C4.97616 29.1141 5.98119 28.2579 5.73812 27.3375C5.54582 26.6093 4.81759 26.2079 4.13902 26.456ZM4.90391 27.3462C5.06098 27.5315 5.04653 27.7034 4.85801 27.8914C4.66064 28.0885 4.45455 28.0947 4.25711 27.9097C4.06045 27.7253 4.06611 27.5006 4.27247 27.2946C4.46509 27.1024 4.71441 27.1227 4.90391 27.3462Z" fill="#00092E"/>
</svg>
