<svg width="30" height="39" viewBox="0 0 30 39" fill="none" xmlns="http://www.w3.org/2000/svg">
<path fill-rule="evenodd" clip-rule="evenodd" d="M13.7492 0.0903667C11.3859 0.536002 9.46191 1.96727 8.39656 4.07228C8.10238 4.65364 7.78208 5.6582 7.72122 6.19023C7.62601 7.02344 7.75335 6.94463 6.50197 6.94463C5.23549 6.94463 4.8756 7.0311 4.37728 7.45521C4.20111 7.60511 3.96316 7.90483 3.8483 8.12129L3.63955 8.51484L3.61744 12.134C3.60049 14.9061 3.57345 15.7535 3.50189 15.7547C3.45051 15.7555 3.16958 15.7905 2.8777 15.8325C1.05329 16.0947 -0.240076 17.8052 0.0375466 19.5885C0.208172 20.6851 0.941975 21.6553 1.96164 22.1329L2.48407 22.3775L4.51062 22.403C6.00303 22.4217 6.56644 22.4042 6.64825 22.3367C6.78475 22.224 6.79407 21.8515 6.66304 21.7439C6.60473 21.6961 5.82232 21.6546 4.67763 21.6389L2.7885 21.6127L2.27447 21.361C0.325645 20.4066 0.358614 17.7109 2.33001 16.81L2.71517 16.634L10.8256 16.5957C17.9228 16.5622 18.9451 16.5431 19.009 16.4425C19.1339 16.2461 19.0919 15.9969 18.9132 15.8724C18.7612 15.7666 17.9387 15.7532 11.593 15.7532H4.44399L4.4654 12.1662L4.4869 8.57934L4.70274 8.29807C5.0691 7.82058 5.274 7.75532 6.50574 7.72407L7.60013 7.69634L7.63726 7.8758C7.65767 7.97453 7.6955 8.23963 7.72122 8.46498C7.78208 8.99701 8.10238 10.0016 8.39656 10.5829C9.15409 12.0797 10.3428 13.2388 11.8434 13.9441C13.0034 14.4893 13.6766 14.6368 15.0017 14.6363C15.9729 14.6358 16.2161 14.6091 16.8653 14.4315C19.0326 13.8385 20.7155 12.4431 21.6636 10.4533C22.1771 9.37517 22.3512 8.58385 22.3512 7.32761C22.3512 6.07136 22.1771 5.28004 21.6636 4.20196C20.7161 2.21322 18.9711 0.771304 16.8559 0.229235C15.9149 -0.0118887 14.6025 -0.0705612 13.7492 0.0903667ZM16.2467 0.924879C18.8255 1.41724 20.8882 3.44642 21.4344 6.02816C21.5808 6.71966 21.582 7.92957 21.4371 8.61442C20.8803 11.2462 18.7451 13.3125 16.1112 13.7686C15.8072 13.8213 15.211 13.8425 14.6626 13.8203C13.8791 13.7885 13.6112 13.7428 12.9801 13.5328C10.7039 12.7754 8.96436 10.8105 8.53753 8.51453C8.42213 7.89396 8.43531 6.62384 8.56326 6.02364C8.81816 4.82813 9.46175 3.63262 10.3282 2.74533C11.1269 1.92737 12.4755 1.18967 13.6331 0.937517C14.2759 0.7975 15.5473 0.791372 16.2467 0.924879ZM23.3365 7.03654C23.2155 7.15695 23.2178 7.51779 23.3404 7.61507C23.3934 7.65712 23.6967 7.70752 24.0144 7.72705C24.6875 7.76834 25.001 7.90751 25.3007 8.298L25.5165 8.57926L25.5551 11.6746C25.5918 14.6265 25.6005 14.7749 25.7431 14.8786C25.9389 15.0208 26.042 15.0156 26.2433 14.8532C26.4092 14.7193 26.4093 14.7147 26.3866 11.617L26.3639 8.51484L26.1551 8.12129C25.9008 7.64188 25.4256 7.22328 24.9546 7.06366C24.5335 6.92103 23.4707 6.90319 23.3365 7.03654ZM20.103 15.8724C19.8953 16.017 19.8811 16.2966 20.0726 16.4689C20.1844 16.5695 20.3764 16.5957 21.002 16.5957C21.9085 16.5957 22.0886 16.5325 22.0886 16.2144C22.0886 15.8508 21.8603 15.7532 21.0102 15.7532C20.4687 15.7532 20.2289 15.7846 20.103 15.8724ZM25.1144 15.8313C24.8817 15.9244 24.8055 16.2536 24.9737 16.4385C25.0865 16.5625 25.2493 16.5853 26.1961 16.6093C27.4587 16.6414 27.8205 16.7565 28.3924 17.3079C28.8901 17.7877 29.1171 18.281 29.1572 18.9702C29.2191 20.0327 28.7136 20.8788 27.729 21.361L27.2149 21.6127L25.3258 21.6389C24.1811 21.6546 23.3987 21.6961 23.3404 21.7439C23.2179 21.8445 23.2155 22.2047 23.3365 22.3251C23.4033 22.3915 23.9459 22.417 25.2928 22.417C26.9314 22.417 27.216 22.3987 27.6493 22.2656C30.041 21.5311 30.786 18.6314 29.0485 16.8201C28.302 16.0418 27.452 15.7518 25.9402 15.7595C25.5801 15.7613 25.2085 15.7937 25.1144 15.8313ZM2.76909 18.8323C2.63944 18.9612 2.654 19.2432 2.79767 19.386C2.90243 19.4901 3.23444 19.5063 5.26153 19.5063H7.60429L7.6247 28.7553L7.64519 38.0043L7.82799 38.2966C7.92852 38.4575 8.15137 38.6815 8.32307 38.7945L8.63536 39H15.0017H21.3681L21.6804 38.7945C21.8521 38.6815 22.0749 38.4575 22.1754 38.2966L22.3582 38.0043L22.3787 28.7553L22.3991 19.5063H24.7419C26.769 19.5063 27.101 19.4901 27.2058 19.386C27.3494 19.2432 27.364 18.9612 27.2343 18.8323C27.0999 18.6986 2.90351 18.6986 2.76909 18.8323ZM9.53247 27.1896C9.53247 33.4491 9.55142 34.8986 9.63461 35.0117C9.69647 35.0958 9.89775 35.1759 10.1453 35.2148C10.8734 35.3292 11.3369 35.79 11.4519 36.514C11.4911 36.7602 11.5716 36.9603 11.6562 37.0218C11.8608 37.1706 18.1427 37.1706 18.3473 37.0218C18.4319 36.9603 18.5124 36.7602 18.5515 36.514C18.6666 35.79 19.13 35.3292 19.8581 35.2148C20.1057 35.1759 20.307 35.0958 20.3688 35.0117C20.452 34.8986 20.471 33.4491 20.471 27.1896V19.5063H21.0102H21.5494V28.663V37.8197L21.3603 38.0077L21.1713 38.1957H15.0017H8.83217L8.64314 38.0077L8.45403 37.8197V28.663V19.5063H8.99325H9.53247V27.1896ZM19.6236 21.1607V22.8151L19.2731 22.3516C18.6698 21.5535 17.732 20.9 16.6579 20.5291C16.1022 20.3372 15.9395 20.3163 15.0017 20.3163C14.0639 20.3163 13.9012 20.3372 13.3455 20.5291C12.2714 20.9 11.3336 21.5535 10.7303 22.3516L10.3798 22.8151V21.1607V19.5063H15.0017H19.6236V21.1607ZM16.1218 21.2314C17.6184 21.6114 18.9071 22.7902 19.3856 24.217C19.6295 24.9445 19.6869 26.0325 19.5166 26.7064C18.9873 28.8027 17.1034 30.3037 15.0017 30.3037C12.9055 30.3037 11.0147 28.7972 10.4868 26.7064C10.3228 26.057 10.3762 24.9536 10.6065 24.2337C11.0501 22.8469 12.3736 21.6225 13.8462 21.2361C14.409 21.0884 15.5494 21.0861 16.1218 21.2314ZM15.7384 24.2718C15.1298 24.3995 14.685 24.925 14.5951 25.6224C14.5378 26.0672 14.2923 26.3234 13.9233 26.3234C13.7309 26.3234 13.5909 26.2689 13.4802 26.151C13.0758 25.7203 13.2549 25.2256 13.8874 25.0267C14.2141 24.9239 14.2735 24.875 14.2947 24.6911C14.3295 24.39 14.187 24.2553 13.8338 24.2553C13.3946 24.2553 12.9461 24.5129 12.7042 24.9039C12.5605 25.1364 12.4306 25.251 12.2744 25.2828C11.9742 25.3442 11.8434 25.4635 11.8434 25.6762C11.8434 25.918 12.0402 26.0936 12.3111 26.0936C12.4466 26.0936 12.5367 26.134 12.5367 26.1947C12.5367 26.2503 12.6584 26.4372 12.8072 26.6099C13.1544 27.0134 13.6354 27.205 14.1313 27.1374C14.8172 27.0439 15.2653 26.5729 15.387 25.8175C15.494 25.1541 15.8283 24.9007 16.3411 25.0946C16.5838 25.1863 16.7993 25.5829 16.7301 25.8102C16.6534 26.0619 16.383 26.3234 16.1994 26.3234C15.9047 26.3234 15.6838 26.5421 15.7099 26.8081C15.7619 27.3369 16.5638 27.2532 17.1393 26.6588C17.3194 26.4728 17.4667 26.2696 17.4667 26.2071C17.4667 26.1327 17.5443 26.0936 17.6924 26.0936C17.9632 26.0936 18.16 25.918 18.16 25.6762C18.16 25.4635 18.0292 25.3442 17.729 25.2828C17.573 25.251 17.443 25.1365 17.2996 24.9046C16.9829 24.3924 16.3625 24.1409 15.7384 24.2718ZM11.0339 29.3773C12.8855 31.3515 15.9323 31.6731 18.1116 30.1242C18.5748 29.795 19.2282 29.1531 19.4854 28.7745C19.6087 28.5931 19.6158 28.7371 19.6196 31.5043L19.6236 34.4255L19.3658 34.4736C18.7866 34.5816 17.9147 35.4486 17.8061 36.0245L17.7577 36.2808H15.0017H12.2458L12.1974 36.0245C12.0887 35.4486 11.2168 34.5816 10.6376 34.4736L10.3798 34.4255L10.3838 31.5043C10.3877 28.7371 10.3948 28.5931 10.518 28.7745C10.5896 28.8798 10.8217 29.1511 11.0339 29.3773Z" fill="#00092E"/>
</svg>
